<svg xmlns="http://www.w3.org/2000/svg" viewBox="0 0 603.56 603.56"><defs><style>.cls-1{fill:none;}.cls-2{fill:#f9f9f9;}.cls-3{fill:#00818a;}</style></defs><title>Artboard 8</title><g id="Layer_8" data-name="Layer 8"><rect class="cls-1" width="603.56" height="603.56" rx="301.78"/><rect class="cls-2" width="603.56" height="603.56" rx="301.78"/><path class="cls-3" d="M251.22,235.25a10.75,10.75,0,0,1-2,8.75c-4.35,5.57-10.65,10.33-18.79,14.29a10.89,10.89,0,0,1-12.42-2,36.3,36.3,0,0,1-5.66-6.92,10.56,10.56,0,0,1-1.49-6.7A43.83,43.83,0,0,1,215,227.86a107.49,107.49,0,0,1,6.15-12.31,10.79,10.79,0,0,1,16.4-2.6C245.63,219.94,249.66,227.44,251.22,235.25Zm69.29,34.2a41.06,41.06,0,0,0-31.76,0,39.07,39.07,0,0,0-14.54,10.33,7.58,7.58,0,0,0-.73,9.08l13.37,21.37a5.35,5.35,0,0,0,4.79,2.51l7.7-.33a103.71,103.71,0,0,1,10.58,0l7.7.33a5.34,5.34,0,0,0,4.78-2.51l13.38-21.37a7.6,7.6,0,0,0-.73-9.08A39.54,39.54,0,0,0,320.51,269.45Zm74.62-41.59A110.89,110.89,0,0,0,389,215.55a10.79,10.79,0,0,0-16.4-2.6c-8,7-12.07,14.49-13.63,22.3a10.63,10.63,0,0,0,2,8.73c4.31,5.59,10.61,10.35,18.78,14.31a10.89,10.89,0,0,0,12.42-2,37.07,37.07,0,0,0,5.66-6.92,10.56,10.56,0,0,0,1.49-6.7A43.83,43.83,0,0,0,395.13,227.86Zm69.54,157.3a3.47,3.47,0,0,0-5.9,2.2c-1,12.93-1.85,26.12-2.34,39.2A185.89,185.89,0,0,0,458.37,461c4.49,30.1,8.21,59.08,10.44,85.9a3.47,3.47,0,0,0,5.45,2.55,302.81,302.81,0,0,0,40.9-34.26q8.13-8.11,15.61-16.84a8.58,8.58,0,0,0,1.65-8.3C518.36,447.47,495.77,415.84,464.67,385.16ZM150,426.56c-.42-11.57-1.82-31.17-2.62-41.76a3.48,3.48,0,0,0-5.88-2.23C109.21,413.93,85.81,446,71.33,489.44a9.64,9.64,0,0,0,1.87,9.35,302.84,302.84,0,0,0,58.85,52.54,3.48,3.48,0,0,0,5.43-2.57c2.21-27.35,6-57,10.58-87.79A189.43,189.43,0,0,0,150,426.56ZM138.76,308.89a117.22,117.22,0,0,0-5.32-21.55c-9.31-26.37-18.57-54.07-18.66-68.82-2.16-51.65,3.92-99.84,37.89-129.22a16.54,16.54,0,0,1,11.46-4c22.82.87,39.09,6.86,45.24,15.49a8.67,8.67,0,0,0,5.81,3.48A62,62,0,0,1,230,109a13.25,13.25,0,0,0,7.1,1.13,471.16,471.16,0,0,1,57.72-3.92q4.14,0,8.42.09c25.51-.58,47.45,1.58,66.15,3.83a13.16,13.16,0,0,0,7.08-1.13,61.77,61.77,0,0,1,14.83-4.72,8.63,8.63,0,0,0,5.78-3.48c6.15-8.63,22.44-14.62,45.24-15.49a16.63,16.63,0,0,1,11.48,4c34,29.38,40,77.57,37.87,129.22-.09,14.75-9.33,42.45-18.63,68.82a113.34,113.34,0,0,0-5.33,21.55c-.17,1.25-.45,3.22-.68,4.78a3.48,3.48,0,0,0,1.78,3.53c38.37,21,66.79,49,84,74.92a1.7,1.7,0,1,1-2.84,1.88c-16.53-25-43.47-45.78-80.13-65.61a3.48,3.48,0,0,0-5.11,2.62l-.71,5.6a8.74,8.74,0,0,0,3.72,8.28c31.91,21.89,60.7,52.67,88.06,87.79a1.7,1.7,0,0,1-1.34,2.75,1.69,1.69,0,0,1-1.34-.66c-27.68-35.53-57-61.28-89.36-82.42a1.11,1.11,0,0,0-1.7.81h0a1.1,1.1,0,0,0,.4,1c21.4,17.5,39.7,39,55.86,65.67a1.7,1.7,0,0,1-.57,2.34,1.7,1.7,0,0,1-2.34-.57c-14.71-24.25-31.3-39.86-50.32-55.33a2.81,2.81,0,0,0-4.57,1.92h0a2.8,2.8,0,0,0,.83,2.26c33,32,58,70.06,73.18,114.94a3.47,3.47,0,0,0,6,1,301.78,301.78,0,1,0-477.47,0,3.47,3.47,0,0,0,6-1c15-44.07,39.31-81.54,71.4-113.21,1.2-1.19,3.26-3.16,4.45-4.3a2.61,2.61,0,0,0,.8-2.16h0a2.64,2.64,0,0,0-4.29-1.8c-20.26,16.25-37.8,32.2-53.25,57.68a1.7,1.7,0,0,1-2.57.4,1.74,1.74,0,0,1-.3-2.23c16.32-26.9,53.42-63,58.56-67.45a1.05,1.05,0,0,0,.35-.91v0a1.06,1.06,0,0,0-1.62-.78c-33.48,21.47-63.65,47.67-92.12,84.2a1.7,1.7,0,0,1-2.69-2.09c26.18-33.6,53.68-63.23,83.95-84.89,1.55-1.11,4.36-3,6.78-4.52a8.44,8.44,0,0,0,3.79-8.16c-.27-2.06-.54-4.25-.71-5.57a3.48,3.48,0,0,0-5.09-2.62C98.43,347.2,70.56,368.42,53.62,394a1.7,1.7,0,1,1-2.84-1.88c17.6-26.56,46.92-55.19,86.65-76.36a3.49,3.49,0,0,0,1.81-3.55C139.07,311.07,138.89,309.76,138.76,308.89Z"/></g></svg>
