<svg xmlns="http://www.w3.org/2000/svg" viewBox="0 0 603.56 603.56"><defs><style>.cls-1{fill:#f75c60;}.cls-2{fill:none;}.cls-3{fill:#f9f9f9;}.cls-4{fill:#0a4b5b;}</style></defs><title>Artboard 8 copy 2</title><g id="Layer_6" data-name="Layer 6"><path class="cls-1" d="M436.64,231.53c-.06.16-.13.29-.2.45a3.11,3.11,0,0,0,.22-.45l18.79-44.81Zm0,0c-.06.16-.13.29-.2.45a3.11,3.11,0,0,0,.22-.45l18.79-44.81Zm0,0c-.06.16-.13.29-.2.45a3.11,3.11,0,0,0,.22-.45l18.79-44.81Zm0,0c-.06.16-.13.29-.2.45a3.11,3.11,0,0,0,.22-.45l18.79-44.81Zm0,0c-.06.16-.13.29-.2.45a3.11,3.11,0,0,0,.22-.45l18.79-44.81Z"/></g><g id="Layer_8" data-name="Layer 8"><rect class="cls-2" width="603.56" height="603.56" rx="301.78"/><rect class="cls-3" width="603.56" height="603.56" rx="301.78"/><path class="cls-4" d="M251.22,235.26a10.77,10.77,0,0,1-2,8.75c-4.35,5.56-10.65,10.32-18.79,14.29a10.89,10.89,0,0,1-12.42-2,36.3,36.3,0,0,1-5.66-6.92,10.56,10.56,0,0,1-1.49-6.7A43.83,43.83,0,0,1,215,227.86a107.49,107.49,0,0,1,6.15-12.31,10.8,10.8,0,0,1,16.4-2.6C245.63,219.94,249.66,227.44,251.22,235.26Zm69.29,34.19a41.06,41.06,0,0,0-31.76,0,39.07,39.07,0,0,0-14.54,10.33,7.58,7.58,0,0,0-.73,9.08l13.37,21.38a5.37,5.37,0,0,0,4.79,2.5l7.7-.33c3.52-.17,7.06-.17,10.58,0l7.7.33a5.35,5.35,0,0,0,4.78-2.5l13.38-21.38a7.6,7.6,0,0,0-.73-9.08A39.54,39.54,0,0,0,320.51,269.45Zm74.62-41.59A110.89,110.89,0,0,0,389,215.55a10.8,10.8,0,0,0-16.4-2.6c-8,7-12.07,14.49-13.63,22.31a10.65,10.65,0,0,0,2,8.73c4.31,5.58,10.61,10.34,18.78,14.31a10.89,10.89,0,0,0,12.42-2,37.07,37.07,0,0,0,5.66-6.92,10.56,10.56,0,0,0,1.49-6.7A43.83,43.83,0,0,0,395.13,227.86Zm70.66,158.41a4.21,4.21,0,0,0-7.15,2.67c-1,12.43-1.74,25.08-2.21,37.62A185.89,185.89,0,0,0,458.37,461c4.42,29.63,8.1,58.18,10.34,84.64a4.2,4.2,0,0,0,6.6,3.08,302,302,0,0,0,39.85-33.53q8-8,15.34-16.52a9.31,9.31,0,0,0,1.79-9C518.38,447.78,496.22,416.51,465.79,386.27ZM150,426.56c-.4-11-1.69-29.32-2.5-40.18a4.2,4.2,0,0,0-7.12-2.71C108.76,414.59,85.78,446.3,71.47,489a10.38,10.38,0,0,0,2,10.08A303.54,303.54,0,0,0,131,550.62a4.2,4.2,0,0,0,6.57-3.12c2.22-27,6-56.19,10.48-86.53A189.43,189.43,0,0,0,150,426.56ZM138.76,308.89a117.22,117.22,0,0,0-5.32-21.55c-9.31-26.37-18.57-54.06-18.66-68.81-2.16-51.66,3.92-99.85,37.89-129.23a16.54,16.54,0,0,1,11.46-4c22.82.87,39.09,6.86,45.24,15.49a8.67,8.67,0,0,0,5.81,3.48A61.58,61.58,0,0,1,230,109a13.24,13.24,0,0,0,7.1,1.12,471.16,471.16,0,0,1,57.72-3.92q4.14,0,8.42.09c25.51-.58,47.45,1.58,66.15,3.83a13.16,13.16,0,0,0,7.08-1.12,61.37,61.37,0,0,1,14.83-4.73,8.63,8.63,0,0,0,5.78-3.48c6.15-8.63,22.44-14.62,45.24-15.49a16.63,16.63,0,0,1,11.48,4c34,29.38,40,77.57,37.87,129.23-.09,14.75-9.33,42.44-18.63,68.81a113.34,113.34,0,0,0-5.33,21.55c-.17,1.25-.45,3.23-.68,4.79a3.46,3.46,0,0,0,1.78,3.52c38.37,21,66.79,49,84,74.92a1.72,1.72,0,0,1-.48,2.37,1.79,1.79,0,0,1-.94.29,1.7,1.7,0,0,1-1.42-.77c-16.53-25-43.47-45.78-80.13-65.61a3.47,3.47,0,0,0-5.11,2.62l-.71,5.59a8.76,8.76,0,0,0,3.72,8.29c31.91,21.89,60.7,52.67,88.06,87.78a1.7,1.7,0,0,1-2.68,2.1c-27.68-35.54-57-61.28-89.36-82.42a1.11,1.11,0,0,0-1.7.8h0a1.09,1.09,0,0,0,.4,1c21.4,17.5,39.7,39,55.86,65.67a1.7,1.7,0,0,1-.57,2.34,1.7,1.7,0,0,1-2.34-.57c-14.71-24.24-31.3-39.86-50.32-55.32a2.81,2.81,0,0,0-4.57,1.92h0a2.77,2.77,0,0,0,.83,2.25c33,32,58,70.07,73.18,115a3.46,3.46,0,0,0,6,1,301.78,301.78,0,1,0-477.47,0,3.47,3.47,0,0,0,6-1c15-44.07,39.31-81.54,71.4-113.21,1.2-1.19,3.26-3.17,4.45-4.3a2.63,2.63,0,0,0,.8-2.17h0a2.65,2.65,0,0,0-4.29-1.8c-20.26,16.25-37.8,32.21-53.25,57.68a1.7,1.7,0,0,1-2.57.4,1.72,1.72,0,0,1-.3-2.22c16.32-26.91,53.42-63,58.56-67.46a1,1,0,0,0,.35-.91v0a1.05,1.05,0,0,0-1.62-.77,360.16,360.16,0,0,0-92.12,84.2,1.71,1.71,0,0,1-2.69-2.1c26.18-33.59,53.68-63.22,83.95-84.89,1.55-1.1,4.36-3,6.78-4.52a8.43,8.43,0,0,0,3.79-8.15c-.27-2.07-.54-4.25-.71-5.57a3.48,3.48,0,0,0-5.09-2.63C98.43,347.2,70.56,368.42,53.62,394a1.7,1.7,0,0,1-1.42.77,1.79,1.79,0,0,1-.94-.29,1.71,1.71,0,0,1-.48-2.37c17.6-26.56,46.92-55.18,86.65-76.36a3.48,3.48,0,0,0,1.81-3.54C139.07,311.07,138.89,309.77,138.76,308.89Z"/></g></svg>