<svg xmlns="http://www.w3.org/2000/svg" viewBox="0 0 603.56 603.56"><defs><style>.cls-1{fill:none;}.cls-2{fill:#f9f9f9;}.cls-3{fill:#0a4b5b;}</style></defs><title>Artboard 8 copy 4</title><g id="Layer_8" data-name="Layer 8"><rect class="cls-1" width="603.56" height="603.56" rx="301.78"/><rect class="cls-2" width="603.56" height="603.56" rx="301.78"/><path class="cls-3" d="M555.76,432.68c-27.36-35.12-56.16-65.9-88.06-87.79a8.71,8.71,0,0,1-3.72-8.28l.7-5.6a3.49,3.49,0,0,1,5.11-2.62c36.67,19.83,63.61,40.66,80.14,65.62a1.7,1.7,0,0,0,1.42.77,1.79,1.79,0,0,0,.94-.29,1.72,1.72,0,0,0,.48-2.37c-17.19-26-45.61-53.91-84-74.92a3.47,3.47,0,0,1-1.78-3.53c.22-1.56.5-3.53.68-4.78A113.34,113.34,0,0,1,473,287.34c9.3-26.37,18.54-54.06,18.63-68.81,2.16-51.66-3.92-99.85-37.87-129.23a16.63,16.63,0,0,0-11.48-4c-22.8.87-39.09,6.86-45.24,15.49a8.63,8.63,0,0,1-5.78,3.48A61.37,61.37,0,0,0,376.45,109a13.16,13.16,0,0,1-7.08,1.12c-18.7-2.25-40.64-4.41-66.15-3.83q-4.28-.09-8.42-.09a471.16,471.16,0,0,0-57.72,3.92A13.24,13.24,0,0,1,230,109a61.58,61.58,0,0,0-14.8-4.73,8.67,8.67,0,0,1-5.81-3.48c-6.15-8.63-22.42-14.62-45.24-15.49a16.54,16.54,0,0,0-11.46,4c-34,29.38-40,77.57-37.89,129.23.09,14.75,9.35,42.44,18.66,68.81a117.22,117.22,0,0,1,5.32,21.55c.12.87.31,2.18.47,3.32a3.46,3.46,0,0,1-1.81,3.55c-39.72,21.17-69,49.8-86.64,76.36a1.71,1.71,0,0,0,.48,2.37,1.79,1.79,0,0,0,.94.29,1.7,1.7,0,0,0,1.42-.77c16.94-25.59,44.81-46.81,82.88-67.09a3.47,3.47,0,0,1,5.08,2.63c.17,1.31.45,3.5.71,5.56a8.44,8.44,0,0,1-3.78,8.17c-2.42,1.56-5.23,3.4-6.78,4.52C101.46,369.45,74,399.08,47.78,432.68a1.71,1.71,0,0,0,2.69,2.1c28.47-36.54,58.63-62.73,92.11-84.21a1.07,1.07,0,0,1,1.63.78,0,0,0,0,0,0,0,1.06,1.06,0,0,1-.36.92c-5.13,4.46-42.24,40.54-58.55,67.44A1.75,1.75,0,0,0,85.6,422a1.72,1.72,0,0,0,1.12.42,1.7,1.7,0,0,0,1.46-.82c15.45-25.48,33-41.43,53.25-57.68a2.64,2.64,0,0,1,3.49,4c-1.19,1.14-3.25,3.11-4.45,4.3-33.53,33.11-58.62,72.52-73.36,119.19.86,1.06,1.72,2.11,2.59,3.15,14.33-46,38.26-79.36,71.83-111.92a3.47,3.47,0,0,1,5.87,2.23c.79,10.58,2.2,30.19,2.62,41.76a189.43,189.43,0,0,1-2,34.41c-4.91,33-8.91,64.61-11,93.54a300.27,300.27,0,0,0,164.74,48.91h0a300.14,300.14,0,0,0,167.49-50.74c-2.15-28.42-6.09-59.42-10.9-91.71a185.89,185.89,0,0,1-1.94-34.41c.49-13.07,1.31-26.28,2.33-39.21a3.48,3.48,0,0,1,5.9-2.2c32.19,31.75,55.24,64.5,69.19,109.34.87-1.05,1.73-2.1,2.58-3.16-15-47.49-40.7-87.47-75.12-120.91a2.88,2.88,0,0,1-.85-2,1.85,1.85,0,0,1,0-.23,2.81,2.81,0,0,1,4.57-1.92c19,15.47,35.62,31.08,50.33,55.33a1.7,1.7,0,0,0,2.91-1.77c-16.16-26.66-34.47-48.17-55.87-65.67a1.11,1.11,0,0,1-.4-.85s0-.08,0-.12a1.11,1.11,0,0,1,1.7-.81c32.39,21.14,61.68,46.89,89.36,82.43a1.7,1.7,0,0,0,2.68-2.1ZM249.24,244c-4.35,5.56-10.65,10.32-18.79,14.29a10.89,10.89,0,0,1-12.42-2,36.3,36.3,0,0,1-5.66-6.92,10.56,10.56,0,0,1-1.49-6.7A43.83,43.83,0,0,1,215,227.86a107.49,107.49,0,0,1,6.15-12.31,10.8,10.8,0,0,1,16.4-2.6c8,7,12.07,14.49,13.63,22.31A10.77,10.77,0,0,1,249.24,244Zm86.54,44.85L322.4,310.24a5.35,5.35,0,0,1-4.78,2.5l-7.7-.33c-3.52-.17-7.06-.17-10.58,0l-7.7.33a5.37,5.37,0,0,1-4.79-2.5l-13.37-21.38a7.58,7.58,0,0,1,.73-9.08,39.07,39.07,0,0,1,14.54-10.33,41.06,41.06,0,0,1,31.76,0,39.54,39.54,0,0,1,14.54,10.33A7.6,7.6,0,0,1,335.78,288.86Zm62-39.47a37.07,37.07,0,0,1-5.66,6.92,10.89,10.89,0,0,1-12.42,2c-8.17-4-14.47-8.73-18.78-14.31a10.65,10.65,0,0,1-2-8.73c1.56-7.82,5.59-15.32,13.63-22.31a10.8,10.8,0,0,1,16.4,2.6,110.89,110.89,0,0,1,6.15,12.31,43.83,43.83,0,0,1,4.16,14.83A10.56,10.56,0,0,1,397.8,249.39Z"/></g></svg>