<svg width="1000" height="1000" viewBox="0 0 1000 1000" fill="none" xmlns="http://www.w3.org/2000/svg">
<path d="M500 1000C223.932 1000 0 776.211 0 500C0 223.932 223.932 0 500 0C776.211 0 1000 223.932 1000 500C1000 776.211 776.211 1000 500 1000Z" fill="white"/>
<path d="M542.098 315.012C564.748 292.362 601.472 292.362 624.122 315.012V315.012C646.772 337.663 646.772 374.386 624.122 397.037L337.037 684.122C314.386 706.772 277.663 706.772 255.012 684.122L214 643.11L542.098 315.012Z" fill="#7DD3FC"/>
<path opacity="0.85" d="M132.012 561.037C109.362 538.386 109.362 501.663 132.012 479.012V479.012C154.663 456.362 191.386 456.362 214.037 479.012L378.085 643.061L337.073 684.073C314.423 706.724 277.699 706.724 255.049 684.073L132.012 561.037Z" fill="#0284C7"/>
<path d="M787.098 315.012C809.748 292.362 846.472 292.362 869.122 315.012V315.012C891.772 337.663 891.772 374.386 869.122 397.037L582.037 684.122C559.386 706.772 522.663 706.772 500.012 684.122L459 643.11L787.098 315.012Z" fill="#7DD3FC"/>
<path opacity="0.85" d="M336 520.024L377.012 479.012C399.663 456.362 436.386 456.362 459.037 479.012L623.085 643.061L582.073 684.073C559.423 706.724 522.699 706.724 500.049 684.073L336 520.024Z" fill="#0284C7"/>
</svg>
