<svg width="359" height="80" viewBox="0 0 359 80" fill="none" xmlns="http://www.w3.org/2000/svg">
<path d="M58.7296 14.3361C61.8444 11.2213 66.8945 11.2213 70.0093 14.3361C73.124 17.4509 73.124 22.5009 70.0093 25.6158L30.5304 65.0947C27.4155 68.2094 22.3655 68.2094 19.2507 65.0947L13.6108 59.4549L58.7296 14.3361Z" fill="#7DD3FC"/>
<path opacity="0.85" d="M2.33606 48.1685C-0.778686 45.0536 -0.778686 40.0036 2.33606 36.8887C5.45094 33.774 10.501 33.774 13.6158 36.8887L36.1751 59.4481L30.5353 65.0879C27.4205 68.2028 22.3704 68.2028 19.2556 65.0879L2.33606 48.1685Z" fill="#0284C7"/>
<path d="M92.4212 14.3361C95.5359 11.2213 100.586 11.2213 103.701 14.3361C106.816 17.4509 106.816 22.5009 103.701 25.6158L64.222 65.0947C61.1071 68.2094 56.0571 68.2094 52.9422 65.0947L47.3024 59.4549L92.4212 14.3361Z" fill="#7DD3FC"/>
<path opacity="0.85" d="M30.3877 42.5285L36.0275 36.8887C39.1424 33.774 44.1924 33.774 47.3073 36.8887L69.8665 59.4481L64.2267 65.0879C61.112 68.2028 56.0618 68.2028 52.9471 65.0879L30.3877 42.5285Z" fill="#0284C7"/>
<path d="M133.703 67C132.903 67 132.263 66.7867 131.783 66.36C131.303 65.9333 131.01 65.3467 130.903 64.6L121.383 13.32L121.303 12.68C121.303 12.2 121.463 11.8 121.783 11.48C122.157 11.16 122.557 11 122.983 11H130.023C131.357 11 132.103 11.5333 132.263 12.6L138.903 48.84L146.103 25.4C146.637 24.0667 147.517 23.4 148.743 23.4H153.063C154.397 23.4 155.25 24.0667 155.623 25.4L162.903 48.76L169.543 12.6C169.65 12.0133 169.863 11.6133 170.183 11.4C170.557 11.1333 171.09 11 171.783 11H178.823C179.25 11 179.623 11.16 179.943 11.48C180.263 11.8 180.423 12.2 180.423 12.68C180.423 12.9467 180.397 13.16 180.343 13.32L170.823 64.6C170.557 66.2 169.623 67 168.023 67H162.663C161.917 67 161.303 66.8133 160.823 66.44C160.343 66.0667 160.023 65.5867 159.863 65L150.903 38.28L141.943 65C141.41 66.3333 140.45 67 139.063 67H133.703ZM201.213 67.8C195.293 67.8 190.573 66.0933 187.053 62.68C183.587 59.2133 181.747 54.36 181.533 48.12L181.453 46.12L181.533 44.12C181.8 38.04 183.667 33.2667 187.133 29.8C190.653 26.3333 195.347 24.6 201.213 24.6C207.507 24.6 212.36 26.52 215.773 30.36C219.24 34.2 220.973 39.32 220.973 45.72V47.4C220.973 47.9333 220.787 48.3867 220.413 48.76C220.04 49.1333 219.56 49.32 218.973 49.32H192.413V49.96C192.52 52.8933 193.32 55.3733 194.813 57.4C196.36 59.3733 198.467 60.36 201.133 60.36C204.28 60.36 206.813 59.1333 208.733 56.68C209.213 56.0933 209.587 55.72 209.853 55.56C210.173 55.4 210.627 55.32 211.213 55.32H218.093C218.573 55.32 218.973 55.48 219.293 55.8C219.667 56.0667 219.853 56.4133 219.853 56.84C219.853 58.12 219.08 59.64 217.533 61.4C216.04 63.1067 213.88 64.6 211.053 65.88C208.227 67.16 204.947 67.8 201.213 67.8ZM210.093 42.6V42.36C210.093 39.2133 209.293 36.68 207.693 34.76C206.147 32.84 203.987 31.88 201.213 31.88C198.44 31.88 196.28 32.84 194.733 34.76C193.187 36.68 192.413 39.2133 192.413 42.36V42.6H210.093ZM237.545 67.8C234.825 67.8 232.319 67.2667 230.025 66.2C227.785 65.08 225.999 63.5867 224.665 61.72C223.385 59.8533 222.745 57.8 222.745 55.56C222.745 51.9333 224.212 49 227.145 46.76C230.079 44.52 234.105 43 239.225 42.2L250.185 40.6V38.92C250.185 36.5733 249.599 34.8133 248.425 33.64C247.252 32.4667 245.359 31.88 242.745 31.88C240.985 31.88 239.545 32.2267 238.425 32.92C237.359 33.56 236.505 34.2 235.865 34.84C235.225 35.5333 234.799 35.9867 234.585 36.2C234.372 36.84 233.972 37.16 233.385 37.16H227.225C226.745 37.16 226.319 37 225.945 36.68C225.625 36.36 225.465 35.9333 225.465 35.4C225.519 34.0667 226.159 32.5467 227.385 30.84C228.665 29.1333 230.612 27.6667 233.225 26.44C235.839 25.2133 239.039 24.6 242.825 24.6C249.119 24.6 253.705 26.0133 256.585 28.84C259.465 31.6667 260.905 35.3733 260.905 39.96V65.08C260.905 65.6133 260.719 66.0667 260.345 66.44C260.025 66.8133 259.572 67 258.985 67H252.505C251.972 67 251.519 66.8133 251.145 66.44C250.772 66.0667 250.585 65.6133 250.585 65.08V61.96C249.412 63.6667 247.732 65.08 245.545 66.2C243.412 67.2667 240.745 67.8 237.545 67.8ZM240.265 60.2C243.199 60.2 245.599 59.24 247.465 57.32C249.332 55.4 250.265 52.6 250.265 48.92V47.24L242.265 48.52C239.172 49 236.825 49.7733 235.225 50.84C233.679 51.9067 232.905 53.2133 232.905 54.76C232.905 56.4667 233.625 57.8 235.065 58.76C236.505 59.72 238.239 60.2 240.265 60.2ZM282.928 67.8C278.928 67.8 275.568 67.2133 272.848 66.04C270.128 64.8133 268.102 63.4 266.768 61.8C265.488 60.1467 264.848 58.7333 264.848 57.56C264.848 57.0267 265.035 56.6 265.408 56.28C265.782 55.96 266.208 55.8 266.688 55.8H273.008C273.488 55.8 273.888 55.9867 274.208 56.36C274.422 56.52 274.982 57 275.888 57.8C276.795 58.6533 277.862 59.32 279.088 59.8C280.315 60.28 281.675 60.52 283.168 60.52C285.302 60.52 287.062 60.0933 288.448 59.24C289.835 58.3867 290.528 57.2133 290.528 55.72C290.528 54.6 290.208 53.6933 289.568 53C288.982 52.3067 287.888 51.6933 286.288 51.16C284.688 50.5733 282.315 49.96 279.168 49.32C274.635 48.36 271.275 46.8933 269.088 44.92C266.955 42.9467 265.888 40.3333 265.888 37.08C265.888 34.9467 266.528 32.9467 267.808 31.08C269.088 29.16 270.982 27.6133 273.488 26.44C276.048 25.2133 279.088 24.6 282.608 24.6C286.182 24.6 289.275 25.1867 291.888 26.36C294.502 27.48 296.475 28.84 297.808 30.44C299.195 31.9867 299.888 33.3733 299.888 34.6C299.888 35.08 299.702 35.5067 299.328 35.88C299.008 36.2 298.608 36.36 298.128 36.36H292.208C291.782 36.36 291.328 36.1733 290.848 35.8C290.475 35.5333 289.888 35.0267 289.088 34.28C288.288 33.5333 287.355 32.9467 286.288 32.52C285.222 32.0933 283.968 31.88 282.528 31.88C280.555 31.88 279.008 32.3067 277.888 33.16C276.822 34.0133 276.288 35.1333 276.288 36.52C276.288 37.5333 276.555 38.36 277.088 39C277.622 39.64 278.662 40.2533 280.208 40.84C281.755 41.4267 284.075 42.0133 287.168 42.6C292.288 43.6133 295.942 45.1867 298.128 47.32C300.368 49.4533 301.488 52.0667 301.488 55.16C301.488 58.8933 299.862 61.9333 296.608 64.28C293.355 66.6267 288.795 67.8 282.928 67.8ZM323.667 67.8C317.747 67.8 313.027 66.0933 309.507 62.68C306.04 59.2133 304.2 54.36 303.987 48.12L303.907 46.12L303.987 44.12C304.253 38.04 306.12 33.2667 309.587 29.8C313.107 26.3333 317.8 24.6 323.667 24.6C329.96 24.6 334.813 26.52 338.227 30.36C341.693 34.2 343.427 39.32 343.427 45.72V47.4C343.427 47.9333 343.24 48.3867 342.867 48.76C342.493 49.1333 342.013 49.32 341.427 49.32H314.867V49.96C314.973 52.8933 315.773 55.3733 317.267 57.4C318.813 59.3733 320.92 60.36 323.587 60.36C326.733 60.36 329.267 59.1333 331.187 56.68C331.667 56.0933 332.04 55.72 332.307 55.56C332.627 55.4 333.08 55.32 333.667 55.32H340.547C341.027 55.32 341.427 55.48 341.747 55.8C342.12 56.0667 342.307 56.4133 342.307 56.84C342.307 58.12 341.533 59.64 339.987 61.4C338.493 63.1067 336.333 64.6 333.507 65.88C330.68 67.16 327.4 67.8 323.667 67.8ZM332.547 42.6V42.36C332.547 39.2133 331.747 36.68 330.147 34.76C328.6 32.84 326.44 31.88 323.667 31.88C320.893 31.88 318.733 32.84 317.187 34.76C315.64 36.68 314.867 39.2133 314.867 42.36V42.6H332.547ZM349.918 67C349.385 67 348.932 66.8133 348.558 66.44C348.185 66.0667 347.998 65.6133 347.998 65.08V12.12C347.998 11.5333 348.185 11.08 348.558 10.76C348.932 10.3867 349.385 10.2 349.918 10.2H356.558C357.145 10.2 357.598 10.3867 357.918 10.76C358.292 11.08 358.478 11.5333 358.478 12.12V65.08C358.478 65.6133 358.292 66.0667 357.918 66.44C357.598 66.8133 357.145 67 356.558 67H349.918Z" fill="#0284C7"/>
</svg>
