<svg width="300" height="300" viewBox="0 0 300 300" fill="none" xmlns="http://www.w3.org/2000/svg">
<path d="M0 150C0 67.1573 67.1573 0 150 0V0C232.843 0 300 67.1573 300 150V150C300 232.843 232.843 300 150 300V300C67.1573 300 0 232.843 0 150V150Z" fill="#0D0D2B"/>
<path d="M160.772 102.406C166.647 96.5313 176.172 96.5313 182.047 102.406C187.922 108.281 187.922 117.806 182.047 123.681L107.585 198.144C101.709 204.019 92.1844 204.019 86.3093 198.144L75.6719 187.506L160.772 102.406Z" fill="white"/>
<path opacity="0.85" d="M54.4061 166.219C48.5313 160.344 48.5313 150.819 54.4061 144.944C60.2812 139.069 69.8062 139.069 75.6813 144.944L118.231 187.494L107.594 198.132C101.719 204.007 92.1936 204.007 86.3188 198.132L54.4061 166.219Z" fill="#7DD3FC"/>
<path d="M224.319 102.406C230.194 96.5313 239.719 96.5313 245.594 102.406C251.469 108.281 251.469 117.806 245.594 123.681L171.131 198.144C165.256 204.019 155.731 204.019 149.856 198.144L139.219 187.506L224.319 102.406Z" fill="white"/>
<path opacity="0.85" d="M107.315 155.581L117.952 144.944C123.827 139.069 133.352 139.069 139.228 144.944L181.777 187.494L171.14 198.132C165.265 204.007 155.74 204.007 149.865 198.132L107.315 155.581Z" fill="#7DD3FC"/>
</svg>
