<svg width="1000" height="1000" viewBox="0 0 1000 1000" fill="none" xmlns="http://www.w3.org/2000/svg">
<g clip-path="url(#clip0)">
<path d="M500 1000C223.932 1000 0 776.211 0 500C0 223.932 223.932 0 500 0C776.211 0 1000 223.932 1000 500C1000 776.211 776.211 1000 500 1000Z" fill="white"/>
<path d="M798.291 542.023C799.145 540.456 799.858 538.746 800.57 537.179C801.282 535.755 802.564 534.758 804.131 534.615C879.487 526.496 942.165 529.06 994.302 547.293C996.296 548.006 997.436 549.858 997.293 551.994C996.011 564.957 994.16 577.493 991.88 590.029C991.453 592.735 988.604 594.302 985.897 593.447C922.65 570.513 860.969 553.704 801.852 548.433C798.718 548.148 796.866 544.872 798.291 542.023ZM772.934 598.006C839.886 612.393 902.707 639.601 960.114 681.339C962.536 683.048 965.812 682.051 966.952 679.345C976.211 655.413 983.618 630.627 989.031 605.128C989.459 602.991 988.319 600.712 986.182 600C917.379 575.356 853.989 564.53 790.598 562.251C788.889 562.251 787.322 563.105 786.467 564.53C786.467 564.53 786.467 564.53 786.467 564.672C784.9 567.379 786.61 570.798 789.744 571.225C829.915 576.638 870.085 588.319 911.681 606.695C912.963 607.265 913.818 608.689 913.533 610.114C913.39 610.826 912.963 611.538 912.393 611.823C911.538 612.393 910.541 612.536 909.544 612.108C862.963 591.453 822.65 586.04 778.348 583.048C776.781 582.906 775.214 583.761 774.217 585.043C772.934 587.037 771.652 589.031 770.228 591.026C768.376 593.875 769.801 597.293 772.934 598.006ZM755.84 611.254C655.556 742.593 515.527 746.581 500.57 746.581C446.439 747.721 394.444 725.641 372.65 714.387C370.94 713.533 369.231 715.67 370.513 717.094L494.302 858.262C578.205 953.846 723.077 965.242 820.655 883.618C881.481 832.764 930.057 767.664 961.254 693.305C962.108 691.453 961.396 689.174 959.687 687.892C898.006 642.877 834.615 621.652 760.114 609.402C758.405 609.259 756.838 609.972 755.84 611.254ZM7.12251 539.886C55.698 522.65 116.809 512.251 184.046 515.67C187.322 515.812 189.601 512.678 188.319 509.687C183.048 496.439 178.205 482.479 173.647 467.806C164.387 437.607 160.114 406.268 161.396 374.786C164.815 291.595 197.293 204.131 245.442 186.895C300.712 189.031 322.08 201.567 335.043 216.809C336.325 218.234 337.892 219.231 339.744 219.801C350.855 222.792 362.678 226.353 375.071 230.912C376.638 231.481 378.348 231.624 380.057 231.339C419.943 222.507 581.054 222.65 620.94 231.339C622.65 231.766 624.359 231.624 625.926 230.912C638.319 226.353 650.142 222.792 661.254 219.801C663.105 219.373 664.672 218.234 665.954 216.809C678.775 201.567 700.285 189.031 755.556 186.895C803.704 204.131 836.182 291.595 839.601 374.786C840.883 406.268 836.467 437.749 827.35 467.806C822.792 482.479 817.949 496.439 812.678 509.544C811.538 512.536 813.818 515.812 817.094 515.67C883.903 512.251 944.729 522.65 993.02 539.886C995.726 540.883 998.718 538.889 999.003 536.04C999.858 524.074 1000.28 512.108 1000.28 500C1000 223.932 776.211 0 500 0C223.789 0 0 223.932 0 500C0 512.108 0.42735 524.217 1.28205 536.04C1.4245 539.031 4.41595 540.883 7.12251 539.886ZM2.70655 552.137C3.9886 564.957 5.84046 577.635 8.11966 590.171C8.54701 592.877 11.396 594.444 13.9601 593.447C77.4929 570.37 139.601 553.419 199.003 548.291C202.137 548.006 203.989 544.729 202.564 541.88C201.852 540.313 200.997 538.746 200.285 537.179C199.573 535.755 198.291 534.758 196.724 534.615C120.94 526.353 57.8348 529.06 5.55556 547.436C3.7037 548.291 2.42165 550.142 2.70655 552.137ZM38.8889 693.732C82.3362 797.151 159.544 882.764 256.838 937.037C262.821 940.456 270.37 936.61 271.225 929.772C284.615 829.487 281.054 728.348 260.256 632.906C259.687 630.342 258.547 627.92 256.838 625.926C252.849 621.225 248.718 616.382 244.729 611.254C243.732 609.972 242.023 609.259 240.456 609.544C165.812 621.795 102.137 643.447 40.4558 688.462C38.7464 689.601 38.0342 691.738 38.8889 693.732ZM11.1111 604.986C16.5242 630.484 23.9316 655.413 33.1909 679.345C34.188 682.051 37.6068 683.048 39.886 681.339C97.5783 639.459 160.541 612.251 227.92 597.863C230.912 597.151 232.479 593.732 230.769 591.026C229.487 589.031 228.205 587.037 226.781 585.043C225.926 583.618 224.359 582.906 222.792 583.048C178.063 586.04 137.607 591.311 90.7407 612.108C89.7436 612.536 88.7464 612.393 87.8917 611.823C87.3219 611.396 86.8946 610.826 86.7521 609.972C86.4672 608.547 87.3219 607.265 88.604 606.695C130.484 588.177 170.94 576.353 211.396 571.083C214.53 570.655 216.239 567.236 214.672 564.53C214.672 564.53 214.672 564.53 214.672 564.387C213.818 562.963 212.251 562.108 210.684 562.108C147.009 564.245 83.3333 575.071 14.1026 599.858C11.8234 600.712 10.5413 602.849 11.1111 604.986ZM554.274 534.615C547.009 526.496 538.319 520.37 528.348 516.239C510.114 508.689 489.744 508.689 471.51 516.239C461.396 520.37 452.707 526.496 445.584 534.615C441.595 539.174 441.026 545.727 444.302 550.855L468.234 589.031C470.085 592.023 473.362 593.732 476.781 593.447C481.339 593.305 485.897 593.02 490.598 592.878C496.866 592.593 503.276 592.593 509.544 592.878C514.103 593.162 518.803 593.305 523.362 593.447C526.781 593.59 530.057 591.88 531.909 589.031L555.84 550.855C558.832 545.727 558.262 539.174 554.274 534.615ZM660.256 492.735C664.103 489.031 667.521 484.9 670.37 480.342C672.507 476.781 673.504 472.507 673.077 468.376C671.795 456.98 669.088 448.718 665.669 441.88C661.681 432.621 657.977 425.499 654.701 419.943C648.576 409.544 634.473 407.407 625.356 415.242C610.969 427.778 603.846 441.168 600.997 455.128C599.858 460.541 601.14 466.382 604.558 470.798C612.251 480.769 623.504 489.316 638.177 496.296C645.442 499.858 654.274 498.433 660.256 492.735ZM361.966 496.154C376.496 489.031 387.749 480.627 395.584 470.655C399.003 466.239 400.142 460.541 399.145 454.986C396.296 441.026 389.174 427.635 374.786 415.1C365.67 407.122 351.709 409.402 345.442 419.801C342.165 425.356 338.462 432.621 334.473 441.738C331.054 448.576 328.348 456.838 327.066 468.234C326.638 472.365 327.493 476.638 329.772 480.199C332.621 484.758 336.04 488.746 339.886 492.593C345.727 498.433 354.558 499.858 361.966 496.154Z" fill="#075985"/>
</g>
<defs>
<clipPath id="clip0">
<rect width="1000" height="1000" fill="white"/>
</clipPath>
</defs>
</svg>
