<svg width="800" height="200" viewBox="0 0 800 200" fill="none" xmlns="http://www.w3.org/2000/svg">
<rect width="800" height="200" rx="50" fill="url(#bg_linear_gradient)"/>
<path d="M165.356 58.7929C170.413 53.7357 178.613 53.7357 183.67 58.7929C188.728 63.8504 188.728 72.0498 183.67 77.1073L119.571 141.207C114.513 146.264 106.314 146.264 101.256 141.207L92.0991 132.05L165.356 58.7929Z" fill="white"/>
<path opacity="0.85" d="M73.7929 113.725C68.7357 108.668 68.7357 100.468 73.7929 95.4106C78.8504 90.3534 87.0498 90.3534 92.1073 95.4106L128.736 132.039L119.579 141.196C114.521 146.254 106.322 146.254 101.264 141.196L73.7929 113.725Z" fill="#7DD3FC"/>
<path d="M220.059 58.7929C225.116 53.7357 233.316 53.7357 238.373 58.7929C243.43 63.8504 243.43 72.0498 238.373 77.1073L174.273 141.207C169.216 146.264 161.016 146.264 155.959 141.207L146.802 132.05L220.059 58.7929Z" fill="white"/>
<path opacity="0.85" d="M119.339 104.568L128.496 95.4106C133.553 90.3534 141.753 90.3534 146.81 95.4106L183.439 132.039L174.282 141.196C169.224 146.254 161.025 146.254 155.967 141.196L119.339 104.568Z" fill="#7DD3FC"/>
<path d="M295.509 145.12C292.056 145.12 288.999 144.63 286.339 143.65C283.726 142.623 281.509 141.2 279.689 139.38C277.916 137.513 276.563 135.273 275.629 132.66C274.696 130.047 274.229 127.13 274.229 123.91V86.39H268.069C266.949 86.39 265.993 86.04 265.199 85.34C264.406 84.5933 264.009 83.52 264.009 82.12V73.65L275.559 71.41L279.829 53.7C280.389 51.46 281.976 50.34 284.589 50.34H295.929V71.55H313.919V86.39H295.929V122.44C295.929 124.12 296.326 125.52 297.119 126.64C297.959 127.713 299.149 128.25 300.689 128.25C301.483 128.25 302.136 128.18 302.649 128.04C303.209 127.853 303.676 127.667 304.049 127.48C304.469 127.247 304.843 127.06 305.169 126.92C305.543 126.733 305.963 126.64 306.429 126.64C307.083 126.64 307.596 126.803 307.969 127.13C308.389 127.41 308.809 127.877 309.229 128.53L315.809 138.82C313.009 140.92 309.859 142.507 306.359 143.58C302.859 144.607 299.243 145.12 295.509 145.12ZM349.046 70.29C354.553 70.29 359.57 71.1533 364.096 72.88C368.623 74.6067 372.496 77.08 375.716 80.3C378.983 83.52 381.503 87.44 383.276 92.06C385.096 96.6333 386.006 101.79 386.006 107.53C386.006 113.317 385.096 118.543 383.276 123.21C381.503 127.83 378.983 131.773 375.716 135.04C372.496 138.26 368.623 140.757 364.096 142.53C359.57 144.257 354.553 145.12 349.046 145.12C343.493 145.12 338.43 144.257 333.856 142.53C329.33 140.757 325.41 138.26 322.096 135.04C318.83 131.773 316.286 127.83 314.466 123.21C312.693 118.543 311.806 113.317 311.806 107.53C311.806 101.79 312.693 96.6333 314.466 92.06C316.286 87.44 318.83 83.52 322.096 80.3C325.41 77.08 329.33 74.6067 333.856 72.88C338.43 71.1533 343.493 70.29 349.046 70.29ZM349.046 129.02C354.04 129.02 357.703 127.27 360.036 123.77C362.416 120.223 363.606 114.857 363.606 107.67C363.606 100.483 362.416 95.14 360.036 91.64C357.703 88.14 354.04 86.39 349.046 86.39C343.913 86.39 340.156 88.14 337.776 91.64C335.396 95.14 334.206 100.483 334.206 107.67C334.206 114.857 335.396 120.223 337.776 123.77C340.156 127.27 343.913 129.02 349.046 129.02ZM455.034 71.41V144H441.594C438.887 144 437.114 142.787 436.274 140.36L435.014 136.16C433.614 137.513 432.167 138.75 430.674 139.87C429.181 140.943 427.571 141.877 425.844 142.67C424.164 143.417 422.321 144 420.314 144.42C418.354 144.887 416.207 145.12 413.874 145.12C409.907 145.12 406.384 144.443 403.304 143.09C400.271 141.69 397.704 139.753 395.604 137.28C393.504 134.807 391.917 131.89 390.844 128.53C389.771 125.17 389.234 121.483 389.234 117.47V71.41H410.934V117.47C410.934 121.063 411.751 123.84 413.384 125.8C415.017 127.76 417.421 128.74 420.594 128.74C422.974 128.74 425.191 128.25 427.244 127.27C429.344 126.243 431.374 124.867 433.334 123.14V71.41H455.034ZM516.118 88.63C515.464 89.4233 514.834 90.0533 514.228 90.52C513.621 90.9867 512.758 91.22 511.638 91.22C510.564 91.22 509.584 90.9633 508.698 90.45C507.858 89.9367 506.901 89.3767 505.828 88.77C504.754 88.1167 503.494 87.5333 502.048 87.02C500.601 86.5067 498.804 86.25 496.658 86.25C493.998 86.25 491.688 86.74 489.728 87.72C487.814 88.7 486.228 90.1 484.968 91.92C483.708 93.74 482.774 95.98 482.168 98.64C481.561 101.253 481.258 104.217 481.258 107.53C481.258 114.483 482.588 119.827 485.248 123.56C487.954 127.293 491.664 129.16 496.378 129.16C498.898 129.16 500.881 128.857 502.328 128.25C503.821 127.597 505.081 126.897 506.108 126.15C507.134 125.357 508.068 124.633 508.908 123.98C509.794 123.327 510.891 123 512.198 123C513.924 123 515.231 123.63 516.118 124.89L522.418 132.66C520.178 135.227 517.821 137.327 515.348 138.96C512.874 140.547 510.331 141.807 507.718 142.74C505.151 143.627 502.561 144.233 499.948 144.56C497.334 144.933 494.791 145.12 492.318 145.12C487.884 145.12 483.638 144.28 479.578 142.6C475.564 140.92 472.018 138.493 468.938 135.32C465.904 132.1 463.478 128.157 461.658 123.49C459.884 118.823 458.998 113.503 458.998 107.53C458.998 102.303 459.768 97.4267 461.308 92.9C462.894 88.3267 465.204 84.3833 468.238 81.07C471.318 77.71 475.098 75.0733 479.578 73.16C484.104 71.2467 489.331 70.29 495.258 70.29C500.951 70.29 505.944 71.2 510.238 73.02C514.531 74.84 518.404 77.5 521.858 81L516.118 88.63ZM561.314 114.46C556.974 114.647 553.404 115.02 550.604 115.58C547.804 116.14 545.587 116.84 543.954 117.68C542.32 118.52 541.177 119.477 540.524 120.55C539.917 121.623 539.614 122.79 539.614 124.05C539.614 126.523 540.29 128.273 541.644 129.3C542.997 130.28 544.98 130.77 547.594 130.77C550.394 130.77 552.844 130.28 554.944 129.3C557.044 128.32 559.167 126.733 561.314 124.54V114.46ZM522.254 81.49C526.64 77.6167 531.494 74.7467 536.814 72.88C542.18 70.9667 547.92 70.01 554.034 70.01C558.42 70.01 562.364 70.7333 565.864 72.18C569.41 73.58 572.397 75.5633 574.824 78.13C577.297 80.65 579.187 83.66 580.494 87.16C581.8 90.66 582.454 94.4867 582.454 98.64V144H572.514C570.46 144 568.897 143.72 567.824 143.16C566.797 142.6 565.934 141.433 565.234 139.66L563.694 135.67C561.874 137.21 560.124 138.563 558.444 139.73C556.764 140.897 555.014 141.9 553.194 142.74C551.42 143.533 549.507 144.117 547.454 144.49C545.447 144.91 543.207 145.12 540.734 145.12C537.42 145.12 534.41 144.7 531.704 143.86C528.997 142.973 526.687 141.69 524.774 140.01C522.907 138.33 521.46 136.253 520.434 133.78C519.407 131.26 518.894 128.367 518.894 125.1C518.894 122.487 519.547 119.85 520.854 117.19C522.16 114.483 524.424 112.033 527.644 109.84C530.864 107.6 535.204 105.733 540.664 104.24C546.124 102.747 553.007 101.907 561.314 101.72V98.64C561.314 94.3933 560.427 91.3367 558.654 89.47C556.927 87.5567 554.454 86.6 551.234 86.6C548.667 86.6 546.567 86.88 544.934 87.44C543.3 88 541.83 88.63 540.524 89.33C539.264 90.03 538.027 90.66 536.814 91.22C535.6 91.78 534.154 92.06 532.474 92.06C530.98 92.06 529.72 91.6867 528.694 90.94C527.667 90.1933 526.827 89.3067 526.174 88.28L522.254 81.49Z" fill="white"/>
<path d="M586.385 133.01C586.385 131.33 586.688 129.767 587.295 128.32C587.948 126.873 588.811 125.613 589.885 124.54C591.005 123.467 592.311 122.627 593.805 122.02C595.298 121.367 596.931 121.04 598.705 121.04C600.431 121.04 602.041 121.367 603.535 122.02C605.028 122.627 606.335 123.467 607.455 124.54C608.575 125.613 609.438 126.873 610.045 128.32C610.698 129.767 611.025 131.33 611.025 133.01C611.025 134.69 610.698 136.277 610.045 137.77C609.438 139.217 608.575 140.477 607.455 141.55C606.335 142.623 605.028 143.463 603.535 144.07C602.041 144.677 600.431 144.98 598.705 144.98C596.931 144.98 595.298 144.677 593.805 144.07C592.311 143.463 591.005 142.623 589.885 141.55C588.811 140.477 587.948 139.217 587.295 137.77C586.688 136.277 586.385 134.69 586.385 133.01ZM638.011 71.41V144H616.311V71.41H638.011ZM640.251 51.53C640.251 53.2567 639.901 54.89 639.201 56.43C638.501 57.9233 637.544 59.2533 636.331 60.42C635.117 61.54 633.694 62.45 632.061 63.15C630.474 63.8033 628.771 64.13 626.951 64.13C625.177 64.13 623.521 63.8033 621.981 63.15C620.441 62.45 619.064 61.54 617.851 60.42C616.684 59.2533 615.751 57.9233 615.051 56.43C614.397 54.89 614.071 53.2567 614.071 51.53C614.071 49.7567 614.397 48.1 615.051 46.56C615.751 45.02 616.684 43.6667 617.851 42.5C619.064 41.3333 620.441 40.4233 621.981 39.77C623.521 39.1167 625.177 38.79 626.951 38.79C628.771 38.79 630.474 39.1167 632.061 39.77C633.694 40.4233 635.117 41.3333 636.331 42.5C637.544 43.6667 638.501 45.02 639.201 46.56C639.901 48.1 640.251 49.7567 640.251 51.53ZM679.605 70.29C685.112 70.29 690.128 71.1533 694.655 72.88C699.182 74.6067 703.055 77.08 706.275 80.3C709.542 83.52 712.062 87.44 713.835 92.06C715.655 96.6333 716.565 101.79 716.565 107.53C716.565 113.317 715.655 118.543 713.835 123.21C712.062 127.83 709.542 131.773 706.275 135.04C703.055 138.26 699.182 140.757 694.655 142.53C690.128 144.257 685.112 145.12 679.605 145.12C674.052 145.12 668.988 144.257 664.415 142.53C659.888 140.757 655.968 138.26 652.655 135.04C649.388 131.773 646.845 127.83 645.025 123.21C643.252 118.543 642.365 113.317 642.365 107.53C642.365 101.79 643.252 96.6333 645.025 92.06C646.845 87.44 649.388 83.52 652.655 80.3C655.968 77.08 659.888 74.6067 664.415 72.88C668.988 71.1533 674.052 70.29 679.605 70.29ZM679.605 129.02C684.598 129.02 688.262 127.27 690.595 123.77C692.975 120.223 694.165 114.857 694.165 107.67C694.165 100.483 692.975 95.14 690.595 91.64C688.262 88.14 684.598 86.39 679.605 86.39C674.472 86.39 670.715 88.14 668.335 91.64C665.955 95.14 664.765 100.483 664.765 107.67C664.765 114.857 665.955 120.223 668.335 123.77C670.715 127.27 674.472 129.02 679.605 129.02Z" fill="#6CB7DF"/>
<defs>
<linearGradient id="bg_linear_gradient" x1="0" y1="0" x2="800" y2="0" gradientUnits="userSpaceOnUse">
<stop stop-color="#0D0D2B"/>
<stop offset="1" stop-color="#074B7A"/>
</linearGradient>
</defs>
</svg>
