<svg width="357" height="80" viewBox="0 0 357 80" fill="none" xmlns="http://www.w3.org/2000/svg">
<path d="M58.7297 14.3361C61.8445 11.2213 66.8946 11.2213 70.0093 14.3361C73.1241 17.4509 73.1241 22.5009 70.0093 25.6158L30.5305 65.0947C27.4156 68.2094 22.3656 68.2094 19.2507 65.0947L13.6109 59.4549L58.7297 14.3361Z" fill="#7DD3FC"/>
<path opacity="0.85" d="M2.33606 48.1684C-0.778686 45.0536 -0.778686 40.0036 2.33606 36.8887C5.45094 33.7739 10.501 33.7739 13.6158 36.8887L36.1751 59.4481L30.5353 65.0879C27.4205 68.2028 22.3704 68.2028 19.2556 65.0879L2.33606 48.1684Z" fill="#0284C7"/>
<path d="M92.4212 14.3361C95.5359 11.2213 100.586 11.2213 103.701 14.3361C106.816 17.4509 106.816 22.5009 103.701 25.6158L64.222 65.0947C61.1071 68.2094 56.0571 68.2094 52.9422 65.0947L47.3024 59.4549L92.4212 14.3361Z" fill="#7DD3FC"/>
<path opacity="0.85" d="M30.3877 42.5285L36.0275 36.8887C39.1424 33.7739 44.1924 33.7739 47.3073 36.8887L69.8665 59.4481L64.2267 65.0879C61.112 68.2028 56.0618 68.2028 52.9471 65.0879L30.3877 42.5285Z" fill="#0284C7"/>
<path d="M144.751 67C144.218 67 143.765 66.8133 143.391 66.44C143.018 66.0667 142.831 65.6133 142.831 65.08V20.84H128.031C127.498 20.84 127.045 20.6533 126.671 20.28C126.298 19.9067 126.111 19.4533 126.111 18.92V13C126.111 12.4133 126.271 11.9333 126.591 11.56C126.965 11.1867 127.445 11 128.031 11H168.831C169.418 11 169.898 11.1867 170.271 11.56C170.645 11.9333 170.831 12.4133 170.831 13V18.92C170.831 19.4533 170.645 19.9067 170.271 20.28C169.898 20.6533 169.418 20.84 168.831 20.84H154.111V65.08C154.111 65.6133 153.925 66.0667 153.551 66.44C153.178 66.8133 152.698 67 152.111 67H144.751ZM185.045 67.8C178.805 67.8 173.978 66.2 170.565 63C167.152 59.7467 165.312 55.32 165.045 49.72L164.965 46.2L165.045 42.68C165.312 37.1333 167.178 32.7333 170.645 29.48C174.112 26.2267 178.912 24.6 185.045 24.6C191.178 24.6 195.978 26.2267 199.445 29.48C202.912 32.7333 204.778 37.1333 205.045 42.68C205.098 43.32 205.125 44.4933 205.125 46.2C205.125 47.9067 205.098 49.08 205.045 49.72C204.778 55.32 202.938 59.7467 199.525 63C196.112 66.2 191.285 67.8 185.045 67.8ZM185.045 59.88C187.872 59.88 190.058 59 191.605 57.24C193.152 55.4267 194.005 52.7867 194.165 49.32C194.218 48.7867 194.245 47.7467 194.245 46.2C194.245 44.6533 194.218 43.6133 194.165 43.08C194.005 39.6133 193.152 37 191.605 35.24C190.058 33.4267 187.872 32.52 185.045 32.52C182.218 32.52 180.032 33.4267 178.485 35.24C176.938 37 176.085 39.6133 175.925 43.08L175.845 46.2L175.925 49.32C176.085 52.7867 176.938 55.4267 178.485 57.24C180.032 59 182.218 59.88 185.045 59.88ZM225.429 67.8C220.522 67.8 216.655 66.2 213.829 63C211.002 59.7467 209.589 55.3467 209.589 49.8V27.32C209.589 26.7867 209.775 26.3333 210.149 25.96C210.522 25.5867 210.975 25.4 211.509 25.4H218.549C219.135 25.4 219.589 25.5867 219.909 25.96C220.282 26.28 220.469 26.7333 220.469 27.32V49.32C220.469 55.9333 223.375 59.24 229.189 59.24C231.962 59.24 234.149 58.36 235.749 56.6C237.402 54.84 238.229 52.4133 238.229 49.32V27.32C238.229 26.7867 238.415 26.3333 238.789 25.96C239.162 25.5867 239.615 25.4 240.149 25.4H247.189C247.775 25.4 248.229 25.5867 248.549 25.96C248.922 26.28 249.109 26.7333 249.109 27.32V65.08C249.109 65.6133 248.922 66.0667 248.549 66.44C248.229 66.8133 247.775 67 247.189 67H240.709C240.175 67 239.722 66.8133 239.349 66.44C238.975 66.0667 238.789 65.6133 238.789 65.08V61.8C235.802 65.8 231.349 67.8 225.429 67.8ZM273.676 67.8C267.81 67.8 263.116 66.1733 259.596 62.92C256.13 59.6667 254.29 55.16 254.076 49.4L253.996 46.2L254.076 43C254.29 37.24 256.13 32.7333 259.596 29.48C263.116 26.2267 267.81 24.6 273.676 24.6C277.836 24.6 281.356 25.3467 284.236 26.84C287.17 28.3333 289.33 30.1733 290.716 32.36C292.156 34.4933 292.93 36.52 293.036 38.44C293.09 38.9733 292.903 39.4267 292.476 39.8C292.103 40.1733 291.65 40.36 291.116 40.36H284.076C283.543 40.36 283.116 40.2533 282.796 40.04C282.53 39.7733 282.263 39.3467 281.996 38.76C281.196 36.68 280.13 35.1867 278.796 34.28C277.516 33.3733 275.863 32.92 273.836 32.92C271.116 32.92 268.983 33.8 267.436 35.56C265.89 37.2667 265.063 39.88 264.956 43.4L264.876 46.36L264.956 49C265.17 55.9867 268.13 59.48 273.836 59.48C275.916 59.48 277.596 59.0267 278.876 58.12C280.156 57.2133 281.196 55.72 281.996 53.64C282.263 53.0533 282.53 52.6533 282.796 52.44C283.116 52.1733 283.543 52.04 284.076 52.04H291.116C291.65 52.04 292.103 52.2267 292.476 52.6C292.903 52.9733 293.09 53.4267 293.036 53.96C292.93 55.8267 292.183 57.8267 290.796 59.96C289.41 62.0933 287.276 63.9333 284.396 65.48C281.516 67.0267 277.943 67.8 273.676 67.8ZM309.459 67.8C306.739 67.8 304.233 67.2667 301.939 66.2C299.699 65.08 297.913 63.5867 296.579 61.72C295.299 59.8533 294.659 57.8 294.659 55.56C294.659 51.9333 296.126 49 299.059 46.76C301.993 44.52 306.019 43 311.139 42.2L322.099 40.6V38.92C322.099 36.5733 321.513 34.8133 320.339 33.64C319.166 32.4667 317.273 31.88 314.659 31.88C312.899 31.88 311.459 32.2267 310.339 32.92C309.273 33.56 308.419 34.2 307.779 34.84C307.139 35.5333 306.713 35.9867 306.499 36.2C306.286 36.84 305.886 37.16 305.299 37.16H299.139C298.659 37.16 298.233 37 297.859 36.68C297.539 36.36 297.379 35.9333 297.379 35.4C297.433 34.0667 298.073 32.5467 299.299 30.84C300.579 29.1333 302.526 27.6667 305.139 26.44C307.753 25.2133 310.953 24.6 314.739 24.6C321.033 24.6 325.619 26.0133 328.499 28.84C331.379 31.6667 332.819 35.3733 332.819 39.96V65.08C332.819 65.6133 332.633 66.0667 332.259 66.44C331.939 66.8133 331.486 67 330.899 67H324.419C323.886 67 323.433 66.8133 323.059 66.44C322.686 66.0667 322.499 65.6133 322.499 65.08V61.96C321.326 63.6667 319.646 65.08 317.459 66.2C315.326 67.2667 312.659 67.8 309.459 67.8ZM312.179 60.2C315.113 60.2 317.513 59.24 319.379 57.32C321.246 55.4 322.179 52.6 322.179 48.92V47.24L314.179 48.52C311.086 49 308.739 49.7733 307.139 50.84C305.593 51.9067 304.819 53.2133 304.819 54.76C304.819 56.4667 305.539 57.8 306.979 58.76C308.419 59.72 310.153 60.2 312.179 60.2Z" fill="#0284C7"/>
</svg>
