<svg width="100" height="100" viewBox="0 0 100 100" fill="none" xmlns="http://www.w3.org/2000/svg">
<g clip-path="url(#clip0)">
<path d="M50 100C77.6142 100 100 77.6142 100 50C100 22.3858 77.6142 0 50 0C22.3858 0 0 22.3858 0 50C0 77.6142 22.3858 100 50 100Z" fill="white"/>
<path d="M54.1074 31.4987C56.3724 29.2337 60.0448 29.2337 62.3098 31.4987C64.5748 33.7638 64.5748 37.4361 62.3098 39.7012L33.6013 68.4097C31.3362 70.6747 27.6639 70.6747 25.3988 68.4097L21.2976 64.3085L54.1074 31.4987Z" fill="#7DD3FC"/>
<path opacity="0.85" d="M13.0988 56.1013C10.8338 53.8362 10.8338 50.1639 13.0988 47.8988C15.3639 45.6338 19.0362 45.6338 21.3013 47.8988L37.7061 64.3037L33.6049 68.4049C31.3399 70.67 27.6675 70.67 25.4025 68.4049L13.0988 56.1013Z" fill="#0284C7"/>
<path d="M78.6074 31.4987C80.8724 29.2337 84.5448 29.2337 86.8098 31.4987C89.0748 33.7638 89.0748 37.4361 86.8098 39.7012L58.1013 68.4097C55.8362 70.6747 52.1639 70.6747 49.8988 68.4097L45.7976 64.3085L78.6074 31.4987Z" fill="#7DD3FC"/>
<path opacity="0.85" d="M33.4976 52L37.5988 47.8988C39.8639 45.6338 43.5362 45.6338 45.8013 47.8988L62.2061 64.3037L58.1049 68.4049C55.8399 70.67 52.1675 70.67 49.9025 68.4049L33.4976 52Z" fill="#0284C7"/>
</g>
<defs>
<clipPath id="clip0">
<rect width="100" height="100" fill="white"/>
</clipPath>
</defs>
</svg>
