<svg width="256px" height="256px" viewBox="0 0 189 256" version="1.1" xmlns="http://www.w3.org/2000/svg" xmlns:xlink="http://www.w3.org/1999/xlink">
<path d="M60.9480327,197.898746 C60.9480327,197.898746 51.20388,203.577614 67.8826145,205.499268 C88.0884327,207.809387 98.4153927,207.478091 120.682342,203.254583 C120.682342,203.254583 126.536531,206.933278 134.712327,210.119505 C84.7957094,231.559386 21.7411855,208.877662 60.9480327,197.898746" id="Path" fill="#5382A1"></path>
<path d="M54.8484873,169.921107 C54.8484873,169.921107 43.9194763,178.028561 60.6105818,179.758739 C82.1950694,181.990338 99.2408073,182.172861 128.736491,176.480906 C128.736491,176.480906 132.816142,180.625894 139.231145,182.89262 C78.878978,200.578731 11.65752,184.28737 54.8484873,169.921107" id="Path" fill="#5382A1"></path>
<path d="M106.269545,122.461747 C118.568978,136.653063 103.037989,149.423458 103.037989,149.423458 C103.037989,149.423458 134.268349,133.266405 119.925655,113.033931 C106.530022,94.1658991 96.2573567,84.7911177 151.869403,52.4680596 C151.869403,52.4680596 64.5768327,74.3170664 106.269545,122.461747" id="Path" fill="#E76F00"></path>
<path d="M172.288277,218.592693 C172.288277,218.592693 179.499142,224.547068 164.34684,229.153529 C135.534305,237.900846 44.4259963,240.54226 19.1164909,229.502044 C10.0183745,225.535446 27.07992,220.030835 32.4468327,218.875776 C38.0439818,217.659416 41.2425491,217.886021 41.2425491,217.886021 C31.12452,210.742837 -24.1562618,231.912033 13.1626473,237.974544 C114.936742,254.515238 198.687109,230.526238 172.288277,218.592693" id="Path" fill="#5382A1"></path>
<path d="M65.6338582,140.93305 C65.6338582,140.93305 19.2903709,151.964312 49.2224727,155.97017 C61.8607309,157.66591 87.0547747,157.282268 110.522389,155.311711 C129.701422,153.690358 148.959491,150.243088 148.959491,150.243088 C148.959491,150.243088 142.196727,153.145545 137.304033,156.493632 C90.2430327,168.897602 -0.670090909,163.127128 25.5026291,150.439386 C47.6369345,139.716691 65.6338582,140.93305 65.6338582,140.93305" id="Path" fill="#5382A1"></path>
<path d="M148.768429,187.503214 C196.608109,162.589891 174.488923,138.648416 159.050029,141.873903 C155.265905,142.663228 153.578651,143.347172 153.578651,143.347172 C153.578651,143.347172 154.983437,141.141746 157.666549,140.187118 C188.209637,129.425851 211.699243,171.926103 147.806935,188.758833 C147.806935,188.759522 148.547127,188.09624 148.768429,187.503214" id="Path" fill="#5382A1"></path>
<path d="M119.925655,0.274817278 C119.925655,0.274817278 146.420018,26.8356661 94.796902,67.6787483 C53.4004037,100.441927 85.3572106,119.122614 94.77972,140.466067 C70.6158982,118.617061 52.8828873,99.3832953 64.7795782,81.4822896 C82.2411167,55.2052121 130.615495,42.465124 119.925655,0.274817278" id="Path" fill="#E76F00"></path>
<path d="M70.3348037,255.012526 C116.254931,257.958374 186.770487,253.378086 188.44056,231.602778 C188.44056,231.602778 185.230309,239.857628 150.490047,246.413294 C111.296258,253.805121 62.9562437,252.942098 34.2852873,248.204772 C34.2859745,248.204083 40.1545963,253.072963 70.3348037,255.012526" id="Path" fill="#5382A1"></path>
</svg>
