<svg width="188" height="40" viewBox="0 0 188 40" fill="none" xmlns="http://www.w3.org/2000/svg">
<path d="M43.6 28.9002C40.7 33.0002 36 35.7002 30.6 35.7002C21.9 35.7002 14.8 28.6002 14.8 19.9002C14.8 11.2002 21.9 4.10019 30.6 4.10019C33.7 4.10019 36.5 5.00019 39 6.50019L30.6 19.9002L46.3 10.8002C43.8 6.90019 40 3.9002 35.6 2.2002C32.1 0.900195 28.3 0.200195 24.4 0.200195C20.4 0.200195 16.7 0.900195 13.2 2.2002C9.6 3.5002 6.4 5.8002 4 8.7002C1.5 11.7002 0 15.6002 0 19.8002C0 24.0002 1.5 27.9002 4 30.9002C6.4 33.8002 9.6 36.1002 13.2 37.4002C16.7 38.7002 20.5 39.4002 24.4 39.4002C26.9 39.4002 29.4 39.1002 31.7 38.6002C36.6 37.5002 40.9 34.9002 44.2 31.3002L43.6 28.9002Z" fill="white"/>
<path d="M109.9 6.90039C109 6.90039 108.2 7.10039 107.5 7.40039L98.4 11.7004C97.9 9.00039 95.6 6.90039 92.7 6.90039C91.8 6.90039 91 7.10039 90.3 7.40039L79 12.7004H86.9V38.6004H98.4V15.6004C98.4 14.0004 99.7 12.7004 101.3 12.7004C102.9 12.7004 104.2 14.0004 104.2 15.6004V38.6004H115.7V12.7004C115.6 9.50039 113 6.90039 109.9 6.90039Z" fill="white"/>
<path d="M181.9 6.90039C181 6.90039 180.2 7.10039 179.5 7.40039L170.4 11.7004C169.9 9.00039 167.6 6.90039 164.7 6.90039C163.8 6.90039 163 7.10039 162.3 7.40039L151.1 12.6004H159V38.5004H170.5V15.5004C170.5 13.9004 171.8 12.6004 173.4 12.6004C175 12.6004 176.3 13.9004 176.3 15.5004V38.5004H187.8V12.7004C187.7 9.50039 185.1 6.90039 181.9 6.90039Z" fill="white"/>
<path d="M136.7 6.90039C127.7 6.90039 120.4 14.2004 120.4 23.2004C120.4 32.2004 127.7 39.5004 136.7 39.5004C145.7 39.5004 153 32.2004 153 23.2004C153 14.2004 145.7 6.90039 136.7 6.90039ZM140.4 37.1004C138.5 37.6004 136.5 36.5004 136 34.6004L130.4 13.8004C129.9 11.9004 131 9.90039 132.9 9.40039C134.8 8.90039 136.8 10.0004 137.3 11.9004L142.9 32.7004C143.4 34.6004 142.3 36.6004 140.4 37.1004Z" fill="white"/>
<path d="M68.4 29.0004C68.4 32.2004 65.8 34.7004 62.7 34.7004C59.5 34.7004 57 32.1004 57 29.0004C57 25.8004 59.6 23.3004 62.7 23.3004C65.9 23.2004 68.4 25.8004 68.4 29.0004ZM71.4 38.5004H82.9L76.3 13.8004C75.2 9.80039 71.6 6.90039 67.3 6.90039C66.2 6.90039 65.1 7.10039 64.1 7.50039L49.9 12.7004H64.6L67 22.0004C64.6 19.9004 61.4 18.6004 57.9 18.6004C55.3 18.6004 52.9 19.3004 50.8 20.4004C49.2 21.3004 47.8 22.6004 46.8 24.2004C46 25.6004 45.5 27.1004 45.5 28.9004C45.5 30.6004 46 32.2004 46.8 33.6004C47.8 35.2004 49.2 36.5004 50.8 37.4004C52.9 38.6004 55.3 39.2004 57.9 39.2004C62.8 39.2004 67.2 36.8004 69.9 33.1004L71.4 38.5004Z" fill="white"/>
</svg>
