<svg width="562" height="101" viewBox="0 0 562 101" fill="none" xmlns="http://www.w3.org/2000/svg">
<path d="M10.7521 5.0376H29.8446V22.0753H43.5432V35.6027H29.8446V63.5136C29.8446 69.4212 31.7282 70.5342 38.0638 70.5342H43.5432V84.3184H31.3857C15.9747 84.3184 10.7521 81.3218 10.7521 66.8527V35.6027H0.90625V22.0753H10.7521V5.0376Z" fill="white"/>
<path d="M108.181 64.8835C102.616 79.6095 89.5167 85.9451 77.1024 85.9451C56.8113 85.9451 42.9414 73.702 42.9414 52.8972C42.9414 32.9486 58.0955 20.2773 76.3318 20.2773C97.051 20.2773 109.722 35.9451 108.438 58.1198H62.2051C62.8044 67.0239 69.6537 71.0479 76.5887 71.0479C83.8661 71.0479 88.4037 68.4794 90.6297 64.7979L108.181 64.8835ZM62.462 46.5616H89.4311C89.0887 38.6849 83.6092 34.8321 76.3318 34.8321C69.4825 34.8321 63.4893 38.3424 62.462 46.5616Z" fill="white"/>
<path d="M174.022 44.9349H156.214C154.502 37.6575 149.964 35.089 144.314 35.089C137.464 35.089 130.786 39.7123 130.786 53.0684C130.786 66.5958 137.55 71.1335 144.314 71.1335C151.334 71.1335 155.701 67.452 157.07 61.5445H174.879C170.598 80.0376 155.615 85.9451 143.115 85.9451C122.567 85.9451 111.266 72.7602 111.266 52.8972C111.266 33.0342 124.279 20.2773 143.115 20.2773C156.043 20.2773 170.255 26.0993 174.022 44.9349Z" fill="white"/>
<path d="M196.112 30.2945C198.852 25.6712 205.616 20.7055 215.462 20.7055C231.472 20.7055 236.438 30.1233 236.438 46.9897V84.4041H217.345V51.7842C217.345 42.8801 217.088 35.6027 207.842 35.6027C199.623 35.6027 196.198 40.911 196.198 52.5548V84.4897H177.105V0.5H196.198V30.2945H196.112Z" fill="white"/>
<path d="M280.36 40.3973C279.076 35.774 274.196 34.4041 268.203 34.4041C261.61 34.4041 258.271 35.9452 258.271 39.0274C258.271 41.9384 260.497 43.5651 265.891 44.5925L277.535 46.6473C292.518 49.387 299.624 53.8391 299.624 64.798C299.624 78.8391 286.781 85.8596 269.487 85.8596C252.877 85.8596 241.148 78.8391 238.922 64.113H256.644C258.357 70.1062 263.151 71.9897 269.744 71.9897C276.593 71.9897 281.302 70.1062 281.302 66.4247C281.302 63.685 278.905 61.887 271.542 60.6028L260.412 58.7192C248.34 56.75 240.12 50.6713 240.12 39.6267C240.12 27.2124 253.22 20.363 268.631 20.363C282.843 20.363 295.771 26.0137 298.168 40.3117H280.36V40.3973Z" fill="white"/>
<path d="M309.553 5.0376H328.645V22.0753H342.344V35.6027H328.645V63.5136C328.645 69.4212 330.529 70.5342 336.865 70.5342H342.258V84.3184H330.186C314.776 84.3184 309.553 81.3218 309.553 66.8527V35.6027H299.707V22.0753H309.553V5.0376Z" fill="white"/>
<path d="M385.836 43.0512C385.836 35.6026 382.241 33.1197 375.306 33.1197C369.141 33.1197 365.032 36.2875 364.176 42.2807H346.367C347.309 30.5512 358.439 20.1917 376.932 20.1917C394.912 20.1917 405.1 27.4691 404.758 46.3903L404.501 59.9177V66.4245C404.501 73.2738 404.929 80.6369 405.871 84.4896H387.121L386.864 76.9554C382.241 83.5478 374.792 86.0307 365.888 86.0307C354.073 86.0307 344.312 79.0958 344.312 67.7088C344.312 52.3834 361.607 47.4177 385.751 45.6197L385.836 43.0512ZM386.35 56.7499C372.994 58.0341 364.09 59.404 364.09 66.2533C364.09 70.2773 367.943 72.9314 372.908 72.9314C380.528 72.9314 386.35 69.6779 386.35 58.2053V56.7499Z" fill="white"/>
<path d="M448.337 40.3972C446.624 40.1404 444.826 39.9691 443.114 40.0548C433.867 40.0548 429.073 43.3938 429.073 53.1541V84.4041H409.98V22.0753H428.388V33.8904C431.299 26.4417 436.522 21.9897 445.426 21.6472H446.796C447.309 21.6472 447.823 21.6472 448.337 21.7328V40.3972Z" fill="white"/>
<path d="M490.547 40.3973C489.263 35.774 484.383 34.4041 478.39 34.4041C471.797 34.4041 468.458 35.9452 468.458 39.0274C468.458 41.9384 470.684 43.5651 476.078 44.5925L487.636 46.6473C502.619 49.387 509.725 53.8391 509.725 64.798C509.725 78.8391 496.883 85.8596 479.589 85.8596C463.065 85.8596 451.164 78.8391 449.023 64.113H466.746C468.458 70.1062 473.253 71.9897 479.845 71.9897C486.695 71.9897 491.404 70.1062 491.404 66.4247C491.404 63.685 489.006 61.887 481.643 60.6028L470.513 58.7192C458.441 56.75 450.308 50.6713 450.308 39.6267C450.308 27.2124 463.407 20.363 478.818 20.363C493.03 20.363 505.958 26.0137 508.356 40.3117H490.547V40.3973Z" fill="white"/>
<path d="M509.551 100.5V84.4041H561.092V100.5H509.551Z" fill="#39C463"/>
</svg>
