<svg width="422" height="100" viewBox="0 0 422 100" fill="none" xmlns="http://www.w3.org/2000/svg">
<path d="M30.043 99.3676C26.8363 99.3676 23.998 98.9126 21.528 98.0026C19.1013 97.0492 17.043 95.7276 15.353 94.0376C13.7063 92.3042 12.4496 90.2242 11.583 87.7976C10.7163 85.3709 10.283 82.6626 10.283 79.6726V44.8326H4.56297C3.52297 44.8326 2.63464 44.5076 1.89797 43.8576C1.1613 43.1642 0.792969 42.1676 0.792969 40.8676V33.0026L11.518 30.9226L15.483 14.4776C16.003 12.3976 17.4763 11.3576 19.903 11.3576H30.433V31.0526H47.138V44.8326H30.433V78.3076C30.433 79.8676 30.8013 81.1676 31.538 82.2076C32.318 83.2042 33.423 83.7026 34.853 83.7026C35.5896 83.7026 36.1963 83.6376 36.673 83.5076C37.193 83.3342 37.6263 83.1609 37.973 82.9876C38.363 82.7709 38.7096 82.5976 39.013 82.4676C39.3596 82.2942 39.7496 82.2076 40.183 82.2076C40.7896 82.2076 41.2663 82.3592 41.613 82.6626C42.003 82.9226 42.393 83.3559 42.783 83.9626L48.893 93.5176C46.293 95.4676 43.368 96.9409 40.118 97.9376C36.868 98.8909 33.5096 99.3676 30.043 99.3676Z" fill="white"/>
<path d="M79.7558 29.8826C84.8691 29.8826 89.5274 30.6842 93.7308 32.2876C97.9341 33.8909 101.531 36.1876 104.521 39.1776C107.554 42.1676 109.894 45.8076 111.541 50.0976C113.231 54.3442 114.076 59.1326 114.076 64.4626C114.076 69.8359 113.231 74.6892 111.541 79.0226C109.894 83.3126 107.554 86.9742 104.521 90.0076C101.531 92.9976 97.9341 95.3159 93.7308 96.9626C89.5274 98.5659 84.8691 99.3676 79.7558 99.3676C74.5991 99.3676 69.8974 98.5659 65.6508 96.9626C61.4474 95.3159 57.8074 92.9976 54.7308 90.0076C51.6974 86.9742 49.3358 83.3126 47.6458 79.0226C45.9991 74.6892 45.1758 69.8359 45.1758 64.4626C45.1758 59.1326 45.9991 54.3442 47.6458 50.0976C49.3358 45.8076 51.6974 42.1676 54.7308 39.1776C57.8074 36.1876 61.4474 33.8909 65.6508 32.2876C69.8974 30.6842 74.5991 29.8826 79.7558 29.8826ZM79.7558 84.4176C84.3925 84.4176 87.7941 82.7926 89.9608 79.5426C92.1708 76.2492 93.2758 71.2659 93.2758 64.5926C93.2758 57.9192 92.1708 52.9576 89.9608 49.7076C87.7941 46.4576 84.3925 44.8326 79.7558 44.8326C74.9891 44.8326 71.5008 46.4576 69.2908 49.7076C67.0808 52.9576 65.9758 57.9192 65.9758 64.5926C65.9758 71.2659 67.0808 76.2492 69.2908 79.5426C71.5008 82.7926 74.9891 84.4176 79.7558 84.4176Z" fill="white"/>
<path d="M178.173 30.9226V98.3276H165.693C163.18 98.3276 161.533 97.2009 160.753 94.9476L159.583 91.0476C158.283 92.3042 156.94 93.4526 155.553 94.4926C154.166 95.4892 152.671 96.3559 151.068 97.0926C149.508 97.7859 147.796 98.3276 145.933 98.7176C144.113 99.1509 142.12 99.3676 139.953 99.3676C136.27 99.3676 132.998 98.7392 130.138 97.4826C127.321 96.1826 124.938 94.3842 122.988 92.0876C121.038 89.7909 119.565 87.0826 118.568 83.9626C117.571 80.8426 117.073 77.4192 117.073 73.6926V30.9226H137.223V73.6926C137.223 77.0292 137.981 79.6076 139.498 81.4276C141.015 83.2476 143.246 84.1576 146.193 84.1576C148.403 84.1576 150.461 83.7026 152.368 82.7926C154.318 81.8392 156.203 80.5609 158.023 78.9576V30.9226H178.173Z" fill="white"/>
<path d="M234.894 46.9126C234.287 47.6492 233.702 48.2342 233.139 48.6676C232.575 49.1009 231.774 49.3176 230.734 49.3176C229.737 49.3176 228.827 49.0792 228.004 48.6026C227.224 48.1259 226.335 47.6059 225.339 47.0426C224.342 46.4359 223.172 45.8942 221.829 45.4176C220.485 44.9409 218.817 44.7026 216.824 44.7026C214.354 44.7026 212.209 45.1576 210.389 46.0676C208.612 46.9776 207.139 48.2776 205.969 49.9676C204.799 51.6576 203.932 53.7376 203.369 56.2076C202.805 58.6342 202.524 61.3859 202.524 64.4626C202.524 70.9192 203.759 75.8809 206.229 79.3476C208.742 82.8142 212.187 84.5476 216.564 84.5476C218.904 84.5476 220.745 84.2659 222.089 83.7026C223.475 83.0959 224.645 82.4459 225.599 81.7526C226.552 81.0159 227.419 80.3442 228.199 79.7376C229.022 79.1309 230.04 78.8276 231.254 78.8276C232.857 78.8276 234.07 79.4126 234.894 80.5826L240.744 87.7976C238.664 90.1809 236.475 92.1309 234.179 93.6476C231.882 95.1209 229.52 96.2909 227.094 97.1576C224.71 97.9809 222.305 98.5442 219.879 98.8476C217.452 99.1942 215.09 99.3676 212.794 99.3676C208.677 99.3676 204.734 98.5876 200.964 97.0276C197.237 95.4676 193.944 93.2142 191.084 90.2676C188.267 87.2776 186.014 83.6159 184.324 79.2826C182.677 74.9492 181.854 70.0092 181.854 64.4626C181.854 59.6092 182.569 55.0809 183.999 50.8776C185.472 46.6309 187.617 42.9692 190.434 39.8926C193.294 36.7726 196.804 34.3242 200.964 32.5476C205.167 30.7709 210.02 29.8826 215.524 29.8826C220.81 29.8826 225.447 30.7276 229.434 32.4176C233.42 34.1076 237.017 36.5776 240.224 39.8276L234.894 46.9126Z" fill="white"/>
<path d="M276.861 70.8976C272.831 71.0709 269.516 71.4176 266.916 71.9376C264.316 72.4576 262.258 73.1076 260.741 73.8876C259.225 74.6676 258.163 75.5559 257.556 76.5526C256.993 77.5492 256.711 78.6326 256.711 79.8026C256.711 82.0992 257.339 83.7242 258.596 84.6776C259.853 85.5876 261.695 86.0426 264.121 86.0426C266.721 86.0426 268.996 85.5876 270.946 84.6776C272.896 83.7676 274.868 82.2942 276.861 80.2576V70.8976ZM240.591 40.2826C244.665 36.6859 249.171 34.0209 254.111 32.2876C259.095 30.5109 264.424 29.6226 270.101 29.6226C274.175 29.6226 277.836 30.2942 281.086 31.6376C284.38 32.9376 287.153 34.7792 289.406 37.1626C291.703 39.5026 293.458 42.2976 294.671 45.5476C295.885 48.7976 296.491 52.3509 296.491 56.2076V98.3276H287.261C285.355 98.3276 283.903 98.0676 282.906 97.5476C281.953 97.0276 281.151 95.9442 280.501 94.2976L279.071 90.5926C277.381 92.0226 275.756 93.2792 274.196 94.3626C272.636 95.4459 271.011 96.3776 269.321 97.1576C267.674 97.8942 265.898 98.4359 263.991 98.7826C262.128 99.1726 260.048 99.3676 257.751 99.3676C254.674 99.3676 251.879 98.9776 249.366 98.1976C246.853 97.3742 244.708 96.1826 242.931 94.6226C241.198 93.0626 239.855 91.1342 238.901 88.8376C237.948 86.4976 237.471 83.8109 237.471 80.7776C237.471 78.3509 238.078 75.9026 239.291 73.4326C240.505 70.9192 242.606 68.6442 245.596 66.6076C248.586 64.5276 252.616 62.7942 257.686 61.4076C262.756 60.0209 269.148 59.2409 276.861 59.0676V56.2076C276.861 52.2642 276.038 49.4259 274.391 47.6926C272.788 45.9159 270.491 45.0276 267.501 45.0276C265.118 45.0276 263.168 45.2876 261.651 45.8076C260.135 46.3276 258.77 46.9126 257.556 47.5626C256.386 48.2126 255.238 48.7976 254.111 49.3176C252.985 49.8376 251.641 50.0976 250.081 50.0976C248.695 50.0976 247.525 49.7509 246.571 49.0576C245.618 48.3642 244.838 47.5409 244.231 46.5876L240.591 40.2826Z" fill="white"/>
<path d="M300.141 88.1226C300.141 86.5626 300.423 85.1109 300.986 83.7676C301.593 82.4242 302.395 81.2542 303.391 80.2576C304.431 79.2609 305.645 78.4809 307.031 77.9176C308.418 77.3109 309.935 77.0076 311.581 77.0076C313.185 77.0076 314.68 77.3109 316.066 77.9176C317.453 78.4809 318.666 79.2609 319.706 80.2576C320.746 81.2542 321.548 82.4242 322.111 83.7676C322.718 85.1109 323.021 86.5626 323.021 88.1226C323.021 89.6826 322.718 91.1559 322.111 92.5426C321.548 93.8859 320.746 95.0559 319.706 96.0526C318.666 97.0492 317.453 97.8292 316.066 98.3926C314.68 98.9559 313.185 99.2376 311.581 99.2376C309.935 99.2376 308.418 98.9559 307.031 98.3926C305.645 97.8292 304.431 97.0492 303.391 96.0526C302.395 95.0559 301.593 93.8859 300.986 92.5426C300.423 91.1559 300.141 89.6826 300.141 88.1226Z" fill="#6CB7DF"/>
<path d="M348.08 30.9226V98.3276H327.93V30.9226H348.08ZM350.16 12.4626C350.16 14.0659 349.835 15.5826 349.185 17.0126C348.535 18.3992 347.647 19.6342 346.52 20.7176C345.393 21.7576 344.072 22.6026 342.555 23.2526C341.082 23.8592 339.5 24.1626 337.81 24.1626C336.163 24.1626 334.625 23.8592 333.195 23.2526C331.765 22.6026 330.486 21.7576 329.36 20.7176C328.276 19.6342 327.41 18.3992 326.76 17.0126C326.153 15.5826 325.85 14.0659 325.85 12.4626C325.85 10.8159 326.153 9.27756 326.76 7.84756C327.41 6.41756 328.276 5.1609 329.36 4.07757C330.486 2.99423 331.765 2.14923 333.195 1.54256C334.625 0.9359 336.163 0.632568 337.81 0.632568C339.5 0.632568 341.082 0.9359 342.555 1.54256C344.072 2.14923 345.393 2.99423 346.52 4.07757C347.647 5.1609 348.535 6.41756 349.185 7.84756C349.835 9.27756 350.16 10.8159 350.16 12.4626Z" fill="#6CB7DF"/>
<path d="M386.703 29.8826C391.816 29.8826 396.475 30.6842 400.678 32.2876C404.881 33.8909 408.478 36.1876 411.468 39.1776C414.501 42.1676 416.841 45.8076 418.488 50.0976C420.178 54.3442 421.023 59.1326 421.023 64.4626C421.023 69.8359 420.178 74.6892 418.488 79.0226C416.841 83.3126 414.501 86.9742 411.468 90.0076C408.478 92.9976 404.881 95.3159 400.678 96.9626C396.475 98.5659 391.816 99.3676 386.703 99.3676C381.546 99.3676 376.845 98.5659 372.598 96.9626C368.395 95.3159 364.755 92.9976 361.678 90.0076C358.645 86.9742 356.283 83.3126 354.593 79.0226C352.946 74.6892 352.123 69.8359 352.123 64.4626C352.123 59.1326 352.946 54.3442 354.593 50.0976C356.283 45.8076 358.645 42.1676 361.678 39.1776C364.755 36.1876 368.395 33.8909 372.598 32.2876C376.845 30.6842 381.546 29.8826 386.703 29.8826ZM386.703 84.4176C391.34 84.4176 394.741 82.7926 396.908 79.5426C399.118 76.2492 400.223 71.2659 400.223 64.5926C400.223 57.9192 399.118 52.9576 396.908 49.7076C394.741 46.4576 391.34 44.8326 386.703 44.8326C381.936 44.8326 378.448 46.4576 376.238 49.7076C374.028 52.9576 372.923 57.9192 372.923 64.5926C372.923 71.2659 374.028 76.2492 376.238 79.5426C378.448 82.7926 381.936 84.4176 386.703 84.4176Z" fill="#6CB7DF"/>
</svg>
