<svg width="250" height="20" viewBox="0 0 250 20" fill="#D1D5DB" xmlns="http://www.w3.org/2000/svg">
<path d="M206.439 10.2639C204.021 10.2639 202.062 8.34044 202.062 5.96597C202.062 3.5915 204.012 1.66809 206.439 1.66809C207.288 1.66809 208.085 1.90639 208.761 2.32341L206.439 5.96597L210.806 3.48937C210.329 2.74894 209.653 2.11064 208.822 1.61702C207.773 1.00426 206.317 0.621277 204.714 0.621277C202.418 0.621277 200.399 1.44681 199.281 2.67235C198.449 3.57448 197.955 4.72341 197.955 5.96597C197.955 7.20853 198.449 8.35746 199.281 9.25959C200.407 10.4936 202.392 11.3107 204.645 11.3107C206.906 11.3107 208.891 10.4936 210.017 9.25959C210.078 9.20002 210.139 9.13193 210.191 9.05534L210.017 8.42555C209.237 9.53193 207.92 10.2639 206.439 10.2639Z"/>
<path d="M220.918 11.0468L219.09 4.3319C218.795 3.25105 217.79 2.45105 216.594 2.45105C216.282 2.45105 215.988 2.50211 215.711 2.60424L211.768 4.01701H215.823L216.516 6.56168C215.841 5.99147 214.965 5.64254 214.012 5.64254C212.106 5.64254 210.563 6.90211 210.563 8.45104C210.563 9.99147 212.106 11.251 214.012 11.251C215.381 11.251 216.594 10.5872 217.34 9.57444L217.747 11.0468H220.918V11.0468ZM215.321 10.0085C214.445 10.0085 213.726 9.31061 213.726 8.44253C213.726 7.57445 214.437 6.87658 215.321 6.87658C216.204 6.87658 216.906 7.57445 216.906 8.44253C216.915 9.3021 216.204 10.0085 215.321 10.0085Z"/>
<path d="M228.388 2.45105C228.154 2.45105 227.92 2.50211 227.721 2.59573L225.191 3.75318C225.061 3.01275 224.411 2.45105 223.622 2.45105C223.38 2.45105 223.154 2.50211 222.955 2.59573L219.844 4.00849H222.01V11.0468H225.199V4.79147C225.199 4.35743 225.555 4.00849 225.988 4.00849C226.43 4.00849 226.785 4.35743 226.785 4.79147V11.0468H229.966V4.00849C229.983 3.14892 229.264 2.45105 228.388 2.45105Z"/>
<path d="M248.354 2.45105C248.111 2.45105 247.886 2.50211 247.678 2.59573L245.147 3.75318C245.026 3.01275 244.367 2.45105 243.57 2.45105C243.328 2.45105 243.102 2.50211 242.903 2.59573L239.809 4.00849H241.984V11.0468H245.165V4.79147C245.165 4.35743 245.52 4.00849 245.962 4.00849C246.404 4.00849 246.759 4.35743 246.759 4.79147V11.0468H249.939V4.00849C249.939 3.14892 249.229 2.45105 248.354 2.45105Z"/>
<path d="M240.329 6.87658C240.329 9.32764 238.31 11.3021 235.815 11.3021C233.328 11.3021 231.309 9.31913 231.309 6.87658C231.309 4.43403 233.328 2.45105 235.815 2.45105C238.31 2.45105 240.329 4.43403 240.329 6.87658ZM236.005 3.79573C235.867 3.26807 235.312 2.96169 234.792 3.09786C234.255 3.24254 233.943 3.77871 234.082 4.29786L235.633 9.96593C235.771 10.4851 236.317 10.7915 236.846 10.6553C237.374 10.5191 237.695 9.98296 237.548 9.4553L236.005 3.79573Z"/>
<path d="M201.75 16.2723C201.603 15.5659 201.04 15.217 200.338 15.217C199.133 15.217 198.622 16.1872 198.622 17.2255C198.622 18.3659 199.133 19.3106 200.347 19.3106C201.222 19.3106 201.75 18.6979 201.802 17.8723H202.478C202.34 19.1234 201.568 19.8638 200.286 19.8638C198.718 19.8638 197.946 18.7234 197.946 17.2766C197.946 15.8298 198.787 14.6638 200.338 14.6638C201.395 14.6638 202.27 15.217 202.418 16.2808H201.75V16.2723Z"/>
<path d="M204.515 14.7744H205.26L207.236 19.7361H206.491L205.936 18.2383H203.796L203.232 19.7361H202.539L204.515 14.7744ZM204.012 17.6936H205.728L204.887 15.3787H204.87L204.012 17.6936Z"/>
<path d="M207.886 14.7744H208.596L211.265 18.8H211.274V14.7744H211.915V19.7447H211.179L208.536 15.7617H208.518V19.7447H207.886V14.7744Z"/>
<path d="M215.139 14.6553C216.742 14.6553 217.556 15.8979 217.556 17.2596C217.556 18.6128 216.742 19.8638 215.139 19.8638C213.527 19.8638 212.712 18.6213 212.712 17.2596C212.721 15.9064 213.536 14.6553 215.139 14.6553ZM215.139 19.3021C216.369 19.3021 216.889 18.2553 216.889 17.2596C216.889 16.2553 216.369 15.217 215.139 15.217C213.908 15.217 213.388 16.2553 213.388 17.2596C213.388 18.2638 213.908 19.3021 215.139 19.3021Z"/>
<path d="M218.371 14.7744H219.09L221.75 18.8H221.768V14.7744H222.4V19.7447H221.664L219.029 15.7617H219.012V19.7447H218.371V14.7744Z"/>
<path d="M229.237 19.1234C228.839 19.634 228.206 19.8638 227.617 19.8638C226.109 19.8638 225.208 18.6638 225.208 17.3617C225.208 15.9149 226.014 14.6638 227.617 14.6638C228.717 14.6638 229.61 15.1489 229.792 16.3149H229.116C228.986 15.5659 228.371 15.2255 227.617 15.2255C226.395 15.2255 225.884 16.2723 225.884 17.3362C225.884 18.3745 226.49 19.3191 227.617 19.3191C228.666 19.3191 229.272 18.6128 229.237 17.7021H227.626V17.1489H229.844V19.7447H229.419L229.237 19.1234Z"/>
<path d="M230.832 14.7744H233.215C234.168 14.7744 234.749 15.2766 234.749 16.0766C234.749 16.6808 234.489 17.1744 233.873 17.3361V17.3532C234.463 17.4638 234.575 17.8978 234.627 18.3744C234.662 18.851 234.645 19.4042 234.922 19.7447H234.168C233.977 19.5404 234.081 19.0042 233.986 18.5191C233.908 18.034 233.795 17.6255 233.146 17.6255H231.508V19.7447H230.832V14.7744ZM232.912 17.0638C233.536 17.0638 234.081 16.9021 234.081 16.1787C234.081 15.6851 233.813 15.3276 233.18 15.3276H231.508V17.0553H232.912V17.0638Z"/>
<path d="M237.816 14.6553C239.428 14.6553 240.234 15.8979 240.234 17.2596C240.234 18.6128 239.419 19.8638 237.816 19.8638C236.204 19.8638 235.399 18.6213 235.399 17.2596C235.399 15.9064 236.213 14.6553 237.816 14.6553ZM237.816 19.3021C239.047 19.3021 239.567 18.2553 239.567 17.2596C239.567 16.2553 239.047 15.217 237.816 15.217C236.586 15.217 236.066 16.2553 236.066 17.2596C236.066 18.2638 236.586 19.3021 237.816 19.3021Z"/>
<path d="M245.095 17.9489C245.095 19.2085 244.376 19.8638 243.102 19.8638C241.802 19.8638 241.031 19.2681 241.031 17.9489V14.7744H241.707V17.9489C241.707 18.834 242.21 19.3021 243.111 19.3021C243.969 19.3021 244.428 18.8255 244.428 17.9489V14.7744H245.095V17.9489V17.9489Z"/>
<path d="M246.17 14.7744H248.388C249.402 14.7744 249.939 15.3191 249.939 16.2468C249.939 17.1744 249.402 17.7191 248.388 17.7106H246.846V19.7447H246.17V14.7744V14.7744ZM246.837 17.1489H248.154C248.917 17.1574 249.264 16.834 249.264 16.2383C249.264 15.6425 248.926 15.3276 248.154 15.3276H246.837V17.1489Z"/>
<path fill-rule="evenodd" clip-rule="evenodd" d="M72.643 4.32343H82.0364V0.902145H58.5789V4.32343H67.9289V19.932H72.643V4.32343Z"/>
<path fill-rule="evenodd" clip-rule="evenodd" d="M97.5736 12.2809L101.924 4.36598L106.456 12.2809H97.5736ZM88.4142 19.932H93.1282L95.5546 15.7447H108.38L110.806 19.932H116.118L104.445 0.902145H99.9046L88.4142 19.932Z"/>
<path fill-rule="evenodd" clip-rule="evenodd" d="M11.7684 19.932H15.0179L26.2398 0.902145H21.3438L13.6055 14.7064L5.39923 0.902145H0.0439453L11.7684 19.932Z"/>
<path fill-rule="evenodd" clip-rule="evenodd" d="M126.655 19.932H146.62V16.3745H131.412V0.902145H126.655V19.932Z"/>
<path fill-rule="evenodd" clip-rule="evenodd" d="M42.4264 6.27234C41.5251 6.27234 40.7106 5.94043 40.0693 5.42128V19.9319H44.7921V5.41277C44.1421 5.94043 43.3276 6.27234 42.4264 6.27234Z"/>
<path fill-rule="evenodd" clip-rule="evenodd" d="M42.4263 0.0598145C43.8734 0.0598145 45.0433 1.20875 45.0433 2.63003C45.0433 4.0513 43.8734 5.20024 42.4263 5.20024C40.9792 5.20024 39.8093 4.0513 39.8093 2.63003C39.8093 1.20875 40.9792 0.0598145 42.4263 0.0598145Z"/>
<path d="M151.837 3.08938C151.837 4.48512 150.737 5.583 149.298 5.583C147.86 5.583 146.759 4.49364 146.759 3.08938C146.759 1.68513 147.868 0.595764 149.307 0.595764C150.745 0.595764 151.837 1.68513 151.837 3.08938ZM147.166 3.08938C147.166 4.28087 148.076 5.22555 149.307 5.22555C150.537 5.22555 151.447 4.28087 151.447 3.08938C151.447 1.89789 150.537 0.953211 149.307 0.953211C148.076 0.953211 147.166 1.89789 147.166 3.08938ZM148.744 4.52768H148.38V1.65108H149.506C150.165 1.65108 150.459 1.93193 150.459 2.45108C150.459 2.96172 150.121 3.19151 149.723 3.25108L150.598 4.52768H150.173L149.35 3.25108H148.744V4.52768V4.52768ZM149.22 2.9447C149.662 2.9447 150.095 2.92768 150.095 2.44257C150.095 2.04257 149.757 1.94896 149.402 1.94896H148.744V2.9447H149.22Z"/>
</svg>
