<svg width="681" height="180" viewBox="0 0 681 180" fill="none" xmlns="http://www.w3.org/2000/svg">
<path d="M105.356 58.7929C110.413 53.7357 118.613 53.7357 123.67 58.7929C128.728 63.8504 128.728 72.0498 123.67 77.1073L59.5706 141.207C54.5132 146.264 46.3137 146.264 41.2563 141.207L32.0992 132.05L105.356 58.7929Z" fill="white"/>
<path d="M13.7931 113.725C8.73587 108.668 8.73587 100.468 13.7931 95.4106C18.8506 90.3534 27.05 90.3534 32.1075 95.4106L68.7358 132.039L59.5787 141.196C54.5215 146.254 46.3218 146.254 41.2646 141.196L13.7931 113.725Z" fill="#7DD3FC"/>
<path d="M160.059 58.7929C165.116 53.7357 173.316 53.7357 178.373 58.7929C183.43 63.8504 183.43 72.0498 178.373 77.1073L114.273 141.207C109.216 146.264 101.016 146.264 95.959 141.207L86.8019 132.05L160.059 58.7929Z" fill="white"/>
<path d="M59.3392 104.568L68.4963 95.4106C73.5538 90.3534 81.7532 90.3534 86.8107 95.4106L123.439 132.039L114.282 141.196C109.225 146.254 101.025 146.254 95.9677 141.196L59.3392 104.568Z" fill="#7DD3FC"/>
<path d="M235.51 145.12C232.056 145.12 229 144.63 226.34 143.65C223.726 142.623 221.51 141.2 219.69 139.38C217.916 137.513 216.563 135.273 215.63 132.66C214.696 130.047 214.23 127.13 214.23 123.91V86.39H208.07C206.95 86.39 205.993 86.04 205.2 85.34C204.406 84.5933 204.01 83.52 204.01 82.12V73.65L215.56 71.41L219.83 53.7C220.39 51.46 221.976 50.34 224.59 50.34H235.93V71.55H253.92V86.39H235.93V122.44C235.93 124.12 236.326 125.52 237.12 126.64C237.96 127.713 239.15 128.25 240.69 128.25C241.483 128.25 242.136 128.18 242.65 128.04C243.21 127.853 243.676 127.667 244.05 127.48C244.47 127.247 244.843 127.06 245.17 126.92C245.543 126.733 245.963 126.64 246.43 126.64C247.083 126.64 247.596 126.803 247.97 127.13C248.39 127.41 248.81 127.877 249.23 128.53L255.81 138.82C253.01 140.92 249.86 142.507 246.36 143.58C242.86 144.607 239.243 145.12 235.51 145.12ZM289.047 70.29C294.553 70.29 299.57 71.1533 304.097 72.88C308.623 74.6067 312.497 77.08 315.717 80.3C318.983 83.52 321.503 87.44 323.277 92.06C325.097 96.6333 326.007 101.79 326.007 107.53C326.007 113.317 325.097 118.543 323.277 123.21C321.503 127.83 318.983 131.773 315.717 135.04C312.497 138.26 308.623 140.757 304.097 142.53C299.57 144.257 294.553 145.12 289.047 145.12C283.493 145.12 278.43 144.257 273.857 142.53C269.33 140.757 265.41 138.26 262.097 135.04C258.83 131.773 256.287 127.83 254.467 123.21C252.693 118.543 251.807 113.317 251.807 107.53C251.807 101.79 252.693 96.6333 254.467 92.06C256.287 87.44 258.83 83.52 262.097 80.3C265.41 77.08 269.33 74.6067 273.857 72.88C278.43 71.1533 283.493 70.29 289.047 70.29ZM289.047 129.02C294.04 129.02 297.703 127.27 300.037 123.77C302.417 120.223 303.607 114.857 303.607 107.67C303.607 100.483 302.417 95.14 300.037 91.64C297.703 88.14 294.04 86.39 289.047 86.39C283.913 86.39 280.157 88.14 277.777 91.64C275.397 95.14 274.207 100.483 274.207 107.67C274.207 114.857 275.397 120.223 277.777 123.77C280.157 127.27 283.913 129.02 289.047 129.02ZM395.034 71.41V144H381.594C378.888 144 377.114 142.787 376.274 140.36L375.014 136.16C373.614 137.513 372.168 138.75 370.674 139.87C369.181 140.943 367.571 141.877 365.844 142.67C364.164 143.417 362.321 144 360.314 144.42C358.354 144.887 356.208 145.12 353.874 145.12C349.908 145.12 346.384 144.443 343.304 143.09C340.271 141.69 337.704 139.753 335.604 137.28C333.504 134.807 331.918 131.89 330.844 128.53C329.771 125.17 329.234 121.483 329.234 117.47V71.41H350.934V117.47C350.934 121.063 351.751 123.84 353.384 125.8C355.018 127.76 357.421 128.74 360.594 128.74C362.974 128.74 365.191 128.25 367.244 127.27C369.344 126.243 371.374 124.867 373.334 123.14V71.41H395.034ZM456.118 88.63C455.465 89.4233 454.835 90.0533 454.228 90.52C453.621 90.9867 452.758 91.22 451.638 91.22C450.565 91.22 449.585 90.9633 448.698 90.45C447.858 89.9367 446.901 89.3767 445.828 88.77C444.755 88.1167 443.495 87.5333 442.048 87.02C440.601 86.5067 438.805 86.25 436.658 86.25C433.998 86.25 431.688 86.74 429.728 87.72C427.815 88.7 426.228 90.1 424.968 91.92C423.708 93.74 422.775 95.98 422.168 98.64C421.561 101.253 421.258 104.217 421.258 107.53C421.258 114.483 422.588 119.827 425.248 123.56C427.955 127.293 431.665 129.16 436.378 129.16C438.898 129.16 440.881 128.857 442.328 128.25C443.821 127.597 445.081 126.897 446.108 126.15C447.135 125.357 448.068 124.633 448.908 123.98C449.795 123.327 450.891 123 452.198 123C453.925 123 455.231 123.63 456.118 124.89L462.418 132.66C460.178 135.227 457.821 137.327 455.348 138.96C452.875 140.547 450.331 141.807 447.718 142.74C445.151 143.627 442.561 144.233 439.948 144.56C437.335 144.933 434.791 145.12 432.318 145.12C427.885 145.12 423.638 144.28 419.578 142.6C415.565 140.92 412.018 138.493 408.938 135.32C405.905 132.1 403.478 128.157 401.658 123.49C399.885 118.823 398.998 113.503 398.998 107.53C398.998 102.303 399.768 97.4267 401.308 92.9C402.895 88.3267 405.205 84.3833 408.238 81.07C411.318 77.71 415.098 75.0733 419.578 73.16C424.105 71.2467 429.331 70.29 435.258 70.29C440.951 70.29 445.945 71.2 450.238 73.02C454.531 74.84 458.405 77.5 461.858 81L456.118 88.63ZM501.314 114.46C496.974 114.647 493.404 115.02 490.604 115.58C487.804 116.14 485.587 116.84 483.954 117.68C482.321 118.52 481.177 119.477 480.524 120.55C479.917 121.623 479.614 122.79 479.614 124.05C479.614 126.523 480.291 128.273 481.644 129.3C482.997 130.28 484.981 130.77 487.594 130.77C490.394 130.77 492.844 130.28 494.944 129.3C497.044 128.32 499.167 126.733 501.314 124.54V114.46ZM462.254 81.49C466.641 77.6167 471.494 74.7467 476.814 72.88C482.181 70.9667 487.921 70.01 494.034 70.01C498.421 70.01 502.364 70.7333 505.864 72.18C509.411 73.58 512.397 75.5633 514.824 78.13C517.297 80.65 519.187 83.66 520.494 87.16C521.801 90.66 522.454 94.4867 522.454 98.64V144H512.514C510.461 144 508.897 143.72 507.824 143.16C506.797 142.6 505.934 141.433 505.234 139.66L503.694 135.67C501.874 137.21 500.124 138.563 498.444 139.73C496.764 140.897 495.014 141.9 493.194 142.74C491.421 143.533 489.507 144.117 487.454 144.49C485.447 144.91 483.207 145.12 480.734 145.12C477.421 145.12 474.411 144.7 471.704 143.86C468.997 142.973 466.687 141.69 464.774 140.01C462.907 138.33 461.461 136.253 460.434 133.78C459.407 131.26 458.894 128.367 458.894 125.1C458.894 122.487 459.547 119.85 460.854 117.19C462.161 114.483 464.424 112.033 467.644 109.84C470.864 107.6 475.204 105.733 480.664 104.24C486.124 102.747 493.007 101.907 501.314 101.72V98.64C501.314 94.3933 500.427 91.3367 498.654 89.47C496.927 87.5567 494.454 86.6 491.234 86.6C488.667 86.6 486.567 86.88 484.934 87.44C483.301 88 481.831 88.63 480.524 89.33C479.264 90.03 478.027 90.66 476.814 91.22C475.601 91.78 474.154 92.06 472.474 92.06C470.981 92.06 469.721 91.6867 468.694 90.94C467.667 90.1933 466.827 89.3067 466.174 88.28L462.254 81.49Z" fill="white"/>
<path d="M526.385 133.01C526.385 131.33 526.688 129.767 527.295 128.32C527.948 126.873 528.812 125.613 529.885 124.54C531.005 123.467 532.312 122.627 533.805 122.02C535.298 121.367 536.932 121.04 538.705 121.04C540.432 121.04 542.042 121.367 543.535 122.02C545.028 122.627 546.335 123.467 547.455 124.54C548.575 125.613 549.438 126.873 550.045 128.32C550.698 129.767 551.025 131.33 551.025 133.01C551.025 134.69 550.698 136.277 550.045 137.77C549.438 139.217 548.575 140.477 547.455 141.55C546.335 142.623 545.028 143.463 543.535 144.07C542.042 144.677 540.432 144.98 538.705 144.98C536.932 144.98 535.298 144.677 533.805 144.07C532.312 143.463 531.005 142.623 529.885 141.55C528.812 140.477 527.948 139.217 527.295 137.77C526.688 136.277 526.385 134.69 526.385 133.01ZM578.011 71.41V144H556.311V71.41H578.011ZM580.251 51.53C580.251 53.2567 579.901 54.89 579.201 56.43C578.501 57.9233 577.544 59.2533 576.331 60.42C575.118 61.54 573.694 62.45 572.061 63.15C570.474 63.8033 568.771 64.13 566.951 64.13C565.178 64.13 563.521 63.8033 561.981 63.15C560.441 62.45 559.064 61.54 557.851 60.42C556.684 59.2533 555.751 57.9233 555.051 56.43C554.398 54.89 554.071 53.2567 554.071 51.53C554.071 49.7567 554.398 48.1 555.051 46.56C555.751 45.02 556.684 43.6667 557.851 42.5C559.064 41.3333 560.441 40.4233 561.981 39.77C563.521 39.1167 565.178 38.79 566.951 38.79C568.771 38.79 570.474 39.1167 572.061 39.77C573.694 40.4233 575.118 41.3333 576.331 42.5C577.544 43.6667 578.501 45.02 579.201 46.56C579.901 48.1 580.251 49.7567 580.251 51.53ZM619.605 70.29C625.112 70.29 630.129 71.1533 634.655 72.88C639.182 74.6067 643.055 77.08 646.275 80.3C649.542 83.52 652.062 87.44 653.835 92.06C655.655 96.6333 656.565 101.79 656.565 107.53C656.565 113.317 655.655 118.543 653.835 123.21C652.062 127.83 649.542 131.773 646.275 135.04C643.055 138.26 639.182 140.757 634.655 142.53C630.129 144.257 625.112 145.12 619.605 145.12C614.052 145.12 608.989 144.257 604.415 142.53C599.889 140.757 595.969 138.26 592.655 135.04C589.388 131.773 586.845 127.83 585.025 123.21C583.252 118.543 582.365 113.317 582.365 107.53C582.365 101.79 583.252 96.6333 585.025 92.06C586.845 87.44 589.388 83.52 592.655 80.3C595.969 77.08 599.889 74.6067 604.415 72.88C608.989 71.1533 614.052 70.29 619.605 70.29ZM619.605 129.02C624.599 129.02 628.262 127.27 630.595 123.77C632.975 120.223 634.165 114.857 634.165 107.67C634.165 100.483 632.975 95.14 630.595 91.64C628.262 88.14 624.599 86.39 619.605 86.39C614.472 86.39 610.715 88.14 608.335 91.64C605.955 95.14 604.765 100.483 604.765 107.67C604.765 114.857 605.955 120.223 608.335 123.77C610.715 127.27 614.472 129.02 619.605 129.02Z" fill="#6CB7DF"/>
</svg>
