<svg width="406" height="209" viewBox="0 0 406 209" fill="none" xmlns="http://www.w3.org/2000/svg">
<path d="M405.282 0.507812H0.188416V208.118H405.282V0.507812Z" fill="#F2F2F2"/>
<path d="M391.779 10.8239H13.6915V197.802H391.779V10.8239Z" fill="white"/>
<path d="M344.888 169.277H69.2696C69.0408 169.277 68.8215 169.186 68.6597 169.024C68.4979 168.862 68.4071 168.643 68.407 168.414V36.3104C68.407 36.0816 68.4979 35.8622 68.6597 35.7004C68.8214 35.5387 69.0408 35.4478 69.2696 35.4478C69.4984 35.4478 69.7178 35.5387 69.8795 35.7004C70.0413 35.8622 70.1322 36.0816 70.1322 36.3104V167.552H344.888C345.117 167.552 345.336 167.642 345.498 167.804C345.66 167.966 345.75 168.185 345.75 168.414C345.75 168.643 345.66 168.862 345.498 169.024C345.336 169.186 345.117 169.277 344.888 169.277V169.277Z" fill="#3F3D56"/>
<path d="M128.157 159.789H103.089C102.41 159.788 101.759 159.518 101.279 159.038C100.799 158.558 100.529 157.907 100.528 157.228V122.671C100.529 121.992 100.799 121.342 101.279 120.862C101.759 120.382 102.41 120.112 103.089 120.111H128.157C128.836 120.112 129.487 120.382 129.967 120.862C130.447 121.342 130.717 121.992 130.718 122.671V157.228C130.717 157.907 130.447 158.558 129.967 159.038C129.487 159.518 128.836 159.788 128.157 159.789V159.789Z" fill="#0284C7"/>
<path d="M173.873 159.789H148.804C148.126 159.788 147.475 159.518 146.995 159.038C146.515 158.558 146.245 157.907 146.244 157.228V89.8939C146.245 89.2151 146.515 88.5643 146.995 88.0844C147.475 87.6044 148.126 87.3344 148.804 87.3336H173.873C174.552 87.3344 175.203 87.6044 175.683 88.0844C176.163 88.5643 176.433 89.2151 176.433 89.8939V157.228C176.433 157.907 176.163 158.558 175.683 159.038C175.203 159.518 174.552 159.788 173.873 159.789V159.789Z" fill="#0284C7"/>
<path d="M219.589 159.789H194.52C193.841 159.788 193.19 159.518 192.71 159.038C192.23 158.558 191.96 157.907 191.959 157.228V122.671C191.96 121.992 192.23 121.342 192.71 120.862C193.19 120.382 193.841 120.112 194.52 120.111H219.589C220.267 120.112 220.918 120.382 221.398 120.862C221.878 121.342 222.148 121.992 222.149 122.671V157.228C222.148 157.907 221.878 158.558 221.398 159.038C220.918 159.518 220.267 159.788 219.589 159.789V159.789Z" fill="#0284C7"/>
<path d="M265.304 159.789H240.236C239.572 159.803 238.93 159.554 238.45 159.095C237.97 158.637 237.692 158.008 237.675 157.344V76.8395C237.692 76.1762 237.97 75.5465 238.45 75.0883C238.93 74.6302 239.572 74.3809 240.236 74.3952H265.304C265.968 74.3809 266.61 74.6302 267.089 75.0883C267.569 75.5465 267.848 76.1762 267.865 76.8395V157.344C267.848 158.008 267.569 158.637 267.089 159.095C266.61 159.554 265.968 159.803 265.304 159.789V159.789Z" fill="#0284C7"/>
<path d="M311.02 159.789H285.951C285.272 159.788 284.622 159.518 284.142 159.038C283.662 158.558 283.392 157.907 283.391 157.228V53.6664C283.392 52.9876 283.662 52.3368 284.142 51.8568C284.622 51.3769 285.272 51.1069 285.951 51.1061H311.02C311.699 51.1069 312.349 51.3769 312.829 51.8568C313.309 52.3368 313.58 52.9876 313.58 53.6664V157.228C313.58 157.907 313.309 158.558 312.829 159.038C312.349 159.518 311.699 159.788 311.02 159.789V159.789Z" fill="#0284C7"/>
<path d="M115.623 109.76C118.481 109.76 120.798 107.443 120.798 104.585C120.798 101.727 118.481 99.4095 115.623 99.4095C112.765 99.4095 110.448 101.727 110.448 104.585C110.448 107.443 112.765 109.76 115.623 109.76Z" fill="#3F3D56"/>
<path d="M161.339 76.1204C164.197 76.1204 166.514 73.8033 166.514 70.945C166.514 68.0868 164.197 65.7697 161.339 65.7697C158.48 65.7697 156.163 68.0868 156.163 70.945C156.163 73.8033 158.48 76.1204 161.339 76.1204Z" fill="#3F3D56"/>
<path d="M207.054 109.76C209.913 109.76 212.23 107.443 212.23 104.585C212.23 101.727 209.913 99.4095 207.054 99.4095C204.196 99.4095 201.879 101.727 201.879 104.585C201.879 107.443 204.196 109.76 207.054 109.76Z" fill="#3F3D56"/>
<path d="M252.77 59.7317C255.628 59.7317 257.945 57.4146 257.945 54.5564C257.945 51.6981 255.628 49.381 252.77 49.381C249.912 49.381 247.595 51.6981 247.595 54.5564C247.595 57.4146 249.912 59.7317 252.77 59.7317Z" fill="#3F3D56"/>
<path d="M298.486 40.7554C301.344 40.7554 303.661 38.4384 303.661 35.5801C303.661 32.7218 301.344 30.4047 298.486 30.4047C295.627 30.4047 293.31 32.7218 293.31 35.5801C293.31 38.4384 295.627 40.7554 298.486 40.7554Z" fill="#3F3D56"/>
<path d="M207.163 105.744L161.339 71.421L116.14 105.275L115.106 103.895L161.339 69.265L206.945 103.425L252.266 53.83L252.447 53.756L298.163 35.337L298.808 36.937L253.274 55.283L207.163 105.744Z" fill="#3F3D56"/>
</svg>
