<svg width="700" height="350" viewBox="0 0 700 350" fill="none" xmlns="http://www.w3.org/2000/svg">
<g clip-path="url(#clip0)">
<path opacity="0.1" d="M43.3711 126.281C58.269 160.938 39.265 200.846 16.8952 230.898C9.4081 240.975 1.14251 251.54 0.104536 264.179C-1.14713 279.641 9.01886 293.853 21.0776 303.145C43.0734 320.076 73.1135 325.311 99.2917 316.767C121.913 309.386 140.933 292.713 163.753 285.993C201.913 274.736 242.364 293.397 275.044 316.649C298.177 333.086 322.951 353.114 350.839 349.593C370.461 347.117 387.115 332.928 398.418 316.225C403.875 308.16 408.622 299.12 416.567 293.68C421.291 290.442 426.84 288.728 432.388 287.502C483.058 276.348 536.834 303.569 586.832 289.569C620.604 280.136 647.53 252.624 664.275 220.97C681.02 189.315 688.835 153.573 695.346 118.161C699.971 93.0066 703.81 65.8324 693.178 42.6986C681.928 18.205 655.888 3.35624 629.717 0.573583C603.546 -2.20908 577.3 5.47075 553.19 16.3027C523.066 29.8701 493.537 48.8614 460.658 48.9243C438.265 48.9714 416.91 40.1204 395.502 33.3681C359.708 22.0881 322.486 16.4835 285.393 11.3112C249.881 6.359 214.018 1.75268 178.292 4.67683C153.014 6.74417 130.69 16.6957 106.161 21.302C90.1713 24.3048 74.1057 22.0881 58.414 27.1189C39.0894 33.3445 19.2154 47.7687 18.1469 70.4859C17.1394 92.1105 35.4718 107.895 43.3711 126.281Z" fill="#0EA5E9"/>
<path d="M491.743 88.3597C488.487 79.921 480.092 60.0866 474.564 64.0216C467.579 68.9954 481.548 90.9678 481.548 90.9678C481.945 95.0014 474.091 103.395 469.882 107.58C469.882 107.246 469.882 107.057 469.882 107.057C469.842 107.216 469.78 107.369 469.699 107.512L469.348 107.322C469.254 107.657 469.085 107.965 468.852 108.224C468.852 107.656 468.814 107.322 468.814 107.322C468.006 110.726 453.899 115.041 453.899 115.041C453.899 115.041 453.518 115.041 452.862 115.041C448.943 115.041 438.74 114.161 434.012 106.64C431.567 102.565 428.439 98.9367 424.763 95.9113C423.504 94.9305 421.975 94.354 420.378 94.2584C407.316 93.4244 396.74 86.8508 394.628 85.4482L394.239 85.1828L394.155 85.4254C393.659 84.7203 393.179 83.9697 392.729 83.1963L392.5 82.7793C395.662 81.2012 398.323 78.7832 400.187 75.7934C402.051 72.8036 403.046 69.359 403.061 65.8413C403.061 65.7124 403.061 65.5759 403.061 65.447C404.21 63.4722 404.815 61.2309 404.815 58.9493V56.6747L407.797 54.0362C409.162 52.8307 410.572 51.5569 411.266 49.8965C411.545 49.2245 411.67 48.4994 411.632 47.7735C411.699 47.1517 411.605 46.5231 411.36 45.9473C411.114 45.3715 410.725 44.8675 410.229 44.4829C407.942 42.9135 404.129 44.4829 402.474 42.2993C401.712 41.3137 401.849 39.9717 401.475 38.8116C400.713 36.4537 397.968 35.1799 395.428 35.142C392.889 35.1041 390.457 36.0215 388.017 36.7114C382.89 38.1586 377.54 38.6571 372.232 38.1823C370.797 37.9283 369.323 37.98 367.909 38.334C367.045 38.689 366.277 39.2412 365.668 39.9459C365.059 40.6505 364.625 41.4879 364.401 42.3903C364.213 43.0684 364.1 43.7651 364.066 44.4678C361.938 46.8536 360.761 49.9303 360.756 53.1188V58.9493C360.761 62.0619 361.883 65.0706 363.921 67.4335C364.161 70.1769 365 72.8353 366.379 75.2236C367.758 77.6119 369.643 79.6728 371.905 81.263C371.905 81.4146 371.905 81.5688 371.905 81.7255L372.004 81.7861C371.88 83.5937 371.6 85.3872 371.165 87.1466V86.7599C371.165 86.7599 360.489 92.4084 349.052 92.5449H347.793C345.537 92.4693 343.343 93.2874 341.693 94.8195C338.308 97.9887 332.375 103 328.73 103C327.968 103 308.721 106.738 305.534 107.36L299.579 101.56L299.396 101.901L299.045 101.56C298.394 101.61 297.747 101.704 297.108 101.84C294.058 98.2465 287.958 89.8912 286.547 78.6775C286.547 78.6775 299.716 63.7638 294.874 49.8661C290.741 38.0231 279.357 63.4075 276.123 71.0577C275.558 72.3926 275.488 73.8839 275.925 75.2656L286.623 109.551C285.605 112.208 285.313 115.086 285.777 117.891H285.655L293.448 127.831C293.448 127.831 299.312 130.318 308.485 130.273C315.208 130.284 321.871 129.012 328.113 126.527H329.92L329.577 126.656H338.857L344.759 144.405C344.56 146.02 341.708 168.561 339.421 173.603C338.742 175.288 338.435 177.098 338.521 178.911C338.641 182.394 339.213 185.847 340.221 189.184L345.391 188.995L345.193 189.397C340.816 198.321 333.504 214.22 329.18 229.081L321.654 244.245L327.297 312.255H327.525L327.96 312.323C328.57 312.414 329.485 312.55 330.69 312.702L330.248 313.46L317.811 333.931C317.811 333.931 308.943 351.984 328.562 348.58C328.562 348.58 335.814 346.487 338.773 334.174L351.675 322.141C351.675 322.141 352.277 314.15 348.625 310.958C348.396 307.266 347.816 296.484 348.708 293.891C349.784 290.752 344.133 254.655 344.133 254.655C344.133 254.655 364.554 212.537 376.922 211.49C377.829 211.427 378.739 211.546 379.598 211.839C389.763 215.13 402.078 239.566 405.7 247.171L405.867 247.52V247.588L406.005 247.884V247.967L406.127 248.225V248.293L406.233 248.528V248.581L406.325 248.771V248.847L406.394 248.991V249.051L406.439 249.158V249.218V249.286L406.477 249.377L408.086 296.727L408.247 296.81H408.323L408.186 297.788L407.484 302.679C407.484 302.679 416.352 321.254 415.811 323.605C415.269 325.955 421.72 335.38 430.856 332.764C439.991 330.148 434.554 315.401 434.554 315.401L425.754 297.371L425.365 296.568C426.242 296.033 427.069 295.421 427.836 294.74C427.836 294.74 425.152 275.384 427.836 271.198C430.52 267.013 431.328 247.914 431.328 247.914C431.328 247.914 429.445 234.835 426.219 229.081L412.707 181.125C416.756 184.87 419.906 186.334 422.536 186.235H422.971C424.127 186.257 425.269 185.974 426.28 185.416C426.823 185.111 427.334 184.753 427.805 184.347C427.895 184.27 427.979 184.186 428.057 184.097V184.097C431.816 180.958 423.756 168.66 419.189 161.351C414.789 154.3 420.851 135.14 421.309 133.715C421.716 133.418 422.153 133.164 422.613 132.957C423.558 132.554 424.573 132.335 425.602 132.312C429.979 132.464 435.362 134.966 442.027 136.224C446.658 137.008 451.352 137.371 456.049 137.309H456.324C458.192 137.309 459.885 137.271 461.257 137.218C462.51 137.169 463.735 136.84 464.841 136.255V136.255C465.79 135.705 466.649 135.015 467.388 134.208L479.085 121.068L478.78 121.212C479.347 119.722 479.347 118.077 478.78 116.587L491.141 95.3578C491.765 94.3117 492.143 93.139 492.247 91.9273C492.352 90.7155 492.179 89.496 491.743 88.3597V88.3597Z" fill="url(#paint0_linear)"/>
<path d="M352.872 320.344L340.42 332.21C337.568 344.341 330.56 346.396 330.56 346.396C311.627 349.747 320.182 331.99 320.182 331.99L332.192 311.784L333.671 309.29C333.671 309.29 342.235 306.712 347.938 308.259C348.658 308.455 349.324 308.813 349.883 309.305C353.459 312.391 352.872 320.344 352.872 320.344Z" fill="#444176"/>
<path d="M429.651 330.921C420.828 333.499 414.606 324.219 415.163 321.891C415.719 319.564 407.103 301.283 407.103 301.283L407.774 296.461L408.399 291.996L422.887 293.027L424.252 295.878L432.747 313.657C432.747 313.657 438.473 328.343 429.651 330.921Z" fill="#444176"/>
<path d="M426.28 270.053C423.688 274.178 426.28 293.269 426.28 293.269C417.717 301.011 407.606 295.332 407.606 295.332L406.081 248.65C406.081 248.65 389.222 210.217 377.288 211.248C365.354 212.279 345.643 253.805 345.643 253.805C345.643 253.805 351.088 289.395 350.05 292.473C349.013 295.552 350.05 310.526 350.05 310.526C348.236 313.619 329.302 310.526 329.302 310.526L323.858 243.464L331.086 228.497C335.242 213.849 342.303 198.169 346.528 189.374C348.625 184.999 350.028 182.33 350.028 182.33L363.829 179.472L408.628 170.237L424.725 228.497C427.836 234.168 429.651 247.065 429.651 247.065C429.651 247.065 428.873 265.929 426.28 270.053Z" fill="#565387"/>
<path opacity="0.1" d="M301.874 102.796C301.874 102.796 287.089 103.554 289.163 119.044L293.311 119.559L299.533 112.857L302.644 107.186V105.897L301.874 102.796Z" fill="black"/>
<path d="M466.359 108.467C466.359 108.467 478.559 114.912 475.44 122.395L471.552 123.911L466.366 121.076L465.604 114.373L466.122 109.733L466.359 108.467Z" fill="#CED2DF"/>
<path d="M388.024 41.9203H377.646C368.765 41.9203 361.565 49.0794 361.565 57.9106C361.565 66.7418 368.765 73.9009 377.646 73.9009H388.024C396.906 73.9009 404.106 66.7418 404.106 57.9106C404.106 49.0794 396.906 41.9203 388.024 41.9203Z" fill="#88455E"/>
<path d="M301.775 104.987L292.693 119.393L291.931 116.83L279.593 76.8578C279.171 75.4952 279.238 74.0292 279.784 72.7105C282.902 65.1741 293.898 40.1082 297.886 51.8223C302.553 65.4698 289.841 80.1939 289.841 80.1939C291.29 92.143 298.039 100.802 300.692 103.804C301.363 104.585 301.775 104.987 301.775 104.987Z" fill="#EC8C9C"/>
<path d="M464.414 111.174C464.414 111.174 478.681 97.7613 478.14 92.3478C478.14 92.3478 464.651 70.6862 471.399 65.811C476.737 61.929 484.842 81.4904 487.984 89.8078C488.399 90.9157 488.566 92.1005 488.473 93.2793C488.379 94.458 488.028 95.6021 487.443 96.6316L470.393 126.649L464.414 111.174Z" fill="#EC8C9C"/>
<path d="M372.065 73.7796C372.065 73.7796 374.657 90.2855 367.139 96.4799C359.62 102.674 388.672 102.636 388.672 102.636L399.05 93.0908C399.05 93.0908 387.117 81.9984 390.747 73.7492L372.065 73.7796Z" fill="#EC8C9C"/>
<path opacity="0.1" d="M371.546 92.6055C371.546 92.6055 382.702 100.862 393.85 91.5744L412.006 128.976L410.969 174.627C410.969 174.627 373.353 193.969 357.79 182.11C342.227 170.252 355.198 164.058 355.198 164.058L351.568 128.984L355.457 106.283C355.457 106.283 362.457 95.4488 362.983 95.4488C363.509 95.4488 371.546 92.6055 371.546 92.6055Z" fill="black"/>
<path d="M371.546 92.09C371.546 92.09 382.702 100.362 393.858 91.0588L412.013 128.461L410.976 174.111C410.976 174.111 373.361 193.453 357.798 181.595C342.235 169.737 355.205 163.542 355.205 163.542L351.576 128.468L355.464 105.768C355.464 105.768 362.464 94.9332 362.991 94.9332C363.517 94.9332 371.546 92.09 371.546 92.09Z" fill="#EBF1F6"/>
<path opacity="0.1" d="M371.546 88.2308C371.546 88.2308 360.97 94.2205 349.486 93.9248C348.409 93.8913 347.336 94.0711 346.329 94.4538C345.323 94.8365 344.402 95.4144 343.622 96.1539C340.351 99.2777 334.625 104.221 331.079 104.221C330.316 104.221 308.249 108.603 308.249 108.603L302.415 102.803C302.415 102.803 293.723 119.696 289.574 118.923L297.101 128.726C297.101 128.726 311.368 134.913 330.042 127.437H340.938L346.642 144.974C346.642 144.974 343.79 168.706 341.457 173.861C339.123 179.017 342.219 189.078 342.219 189.078L362.708 188.32C362.708 188.32 363.746 178.259 365.301 176.947C366.857 175.635 359.857 131.296 359.857 131.296C359.857 131.296 355.19 106.276 372.309 97.2533L371.546 88.2308Z" fill="black"/>
<path d="M371.546 88.2308C371.546 88.2308 360.444 94.2205 348.968 93.9248C347.89 93.8913 346.817 94.0711 345.811 94.4538C344.804 94.8365 343.884 95.4144 343.104 96.1539C339.833 99.2777 334.106 104.221 330.56 104.221C329.798 104.221 307.73 108.603 307.73 108.603L301.874 102.796C301.874 102.796 293.181 119.688 289.033 118.915L296.559 128.718C296.559 128.718 310.826 134.905 329.5 127.429H340.397L346.101 144.959C346.101 144.959 343.249 168.69 340.915 173.846C338.582 179.002 341.678 189.063 341.678 189.063L362.167 188.305C362.167 188.305 363.204 178.244 364.76 176.932C366.315 175.62 359.315 131.281 359.315 131.281C359.315 131.281 354.649 106.261 371.767 97.2381L371.546 88.2308Z" fill="#CED2DF"/>
<path opacity="0.1" d="M393.858 86.6689C393.858 86.6689 404.442 94.6906 418.571 95.6156C420.117 95.7121 421.595 96.2814 422.803 97.2457C426.367 100.252 429.387 103.842 431.732 107.86C437.436 117.148 451.444 116.117 451.444 116.117C451.444 116.117 465.062 111.864 465.84 108.535C465.84 108.535 466.229 126.732 474.792 122.334L463.53 135.239C462.82 136.054 461.95 136.716 460.973 137.184C459.996 137.652 458.933 137.917 457.849 137.961C453.617 138.128 446.266 138.181 440.059 136.983C430.718 135.178 423.977 130.796 419.052 134.663C419.052 134.663 412.57 154.778 416.978 162.003C421.385 169.229 429.178 181.345 425.541 184.446C421.903 187.547 417.496 187.281 410.237 179.806C402.977 172.33 402.192 159.691 402.192 159.691L404.007 127.194C404.007 127.194 397.007 102.69 390.281 97.7916L393.858 86.6689Z" fill="black"/>
<path opacity="0.1" d="M475.822 122.008L464.529 134.966C463.778 135.825 462.85 136.513 461.806 136.983V136.983C460.879 137.399 459.88 137.633 458.863 137.673C454.631 137.847 447.28 137.9 441.073 136.695C432.335 135.004 425.869 131.061 421.034 133.722C420.691 133.91 420.365 134.126 420.058 134.367C420.058 134.367 413.577 154.482 417.984 161.707C422.391 168.933 430.184 181.049 426.547 184.15C425.938 184.682 425.255 185.124 424.519 185.462C421.255 186.925 417.206 185.659 411.243 179.51C403.984 172.026 403.199 159.395 403.199 159.395L405.013 126.899C405.013 126.899 398.013 102.394 391.288 97.4959L394.254 86.9191C396.298 88.299 406.5 94.7816 419.113 95.608C420.659 95.7044 422.137 96.2738 423.345 97.2381C426.908 100.244 429.928 103.834 432.274 107.853C437.978 117.141 451.985 116.11 451.985 116.11C455.343 115.044 458.622 113.747 461.799 112.228V112.228C463.789 111.257 465.543 110.196 466.374 109.195C466.607 108.933 466.777 108.622 466.87 108.285C466.87 108.285 467.266 126.391 475.822 122.008Z" fill="black"/>
<path d="M475.303 122.266L464.018 135.239C463.397 135.951 462.653 136.547 461.822 136.998V136.998C460.756 137.573 459.572 137.898 458.36 137.946C454.128 138.12 446.777 138.173 440.57 136.968C432.144 135.337 425.823 131.607 421.057 133.738C420.513 133.973 420 134.276 419.532 134.64C419.532 134.64 413.051 154.755 417.458 161.98C421.865 169.206 429.658 181.322 426.021 184.423C425.551 184.826 425.04 185.179 424.496 185.477C421.141 187.319 416.993 186.235 410.702 179.783C403.443 172.299 402.657 159.668 402.657 159.668L404.472 127.172C404.472 127.172 397.472 102.667 390.747 97.7689L393.858 86.6765L394.231 86.9343C396.275 88.3142 406.478 94.7968 419.09 95.6232C420.636 95.7197 422.114 96.289 423.322 97.2533C426.885 100.26 429.905 103.85 432.251 107.868C437.955 117.156 451.962 116.125 451.962 116.125C455.32 115.06 458.6 113.762 461.776 112.243V112.243C464.132 111.045 466.054 109.733 466.351 108.535C466.351 108.535 466.351 108.77 466.351 109.187C466.58 112.319 467.724 126.141 475.303 122.266Z" fill="#CED2DF"/>
<path d="M383.48 86.4111C393.936 86.4111 402.413 77.9825 402.413 67.5852C402.413 57.1879 393.936 48.7592 383.48 48.7592C373.023 48.7592 364.546 57.1879 364.546 67.5852C364.546 77.9825 373.023 86.4111 383.48 86.4111Z" fill="#EC8C9C"/>
<path opacity="0.1" d="M379.545 64.2339C381.657 63.9837 383.769 63.2407 385.851 63.6577C387.742 64.0368 389.351 65.3333 391.242 65.7275C394.887 66.4857 398.273 63.8169 401.025 61.33L406.973 55.9468C408.292 54.7565 409.65 53.5055 410.328 51.8678C411.007 50.2301 410.771 48.0768 409.322 47.0456C407.149 45.5292 403.405 47.0456 401.834 44.8924C401.125 43.9219 401.231 42.6178 400.865 41.4577C400.103 39.1377 397.48 37.8715 395.024 37.8411C392.569 37.8108 390.22 38.7055 387.872 39.3575C382.924 40.7846 377.751 41.2758 372.621 40.8057C371.237 40.5537 369.814 40.6028 368.45 40.9498C367.611 41.306 366.867 41.8531 366.279 42.5471C365.691 43.241 365.275 44.0625 365.065 44.9454C363.89 49.07 365.896 55.7194 367.909 59.4118C369.922 63.1042 375.527 64.7267 379.545 64.2339Z" fill="black"/>
<path d="M379.545 63.7184C381.657 63.4682 383.769 62.7251 385.851 63.1421C387.742 63.5212 389.351 64.8177 391.242 65.212C394.887 65.9702 398.273 63.3013 401.025 60.8145L406.973 55.4313C408.292 54.2409 409.65 52.9899 410.328 51.3522C411.007 49.7145 410.771 47.5612 409.322 46.5301C407.149 45.0137 403.405 46.5301 401.834 44.3768C401.125 43.4063 401.231 42.1022 400.865 40.9422C400.103 38.6221 397.48 37.3559 395.024 37.3256C392.569 37.2953 390.22 38.1899 387.872 38.842C382.924 40.269 377.751 40.7602 372.621 40.2901C371.237 40.0381 369.814 40.0872 368.45 40.4342C367.611 40.7904 366.867 41.3375 366.279 42.0315C365.691 42.7255 365.275 43.547 365.065 44.4299C363.89 48.5545 365.896 55.2038 367.909 58.8962C369.922 62.5886 375.527 64.1733 379.545 63.7184Z" fill="#88455E"/>
<path d="M149.257 212.427C149.348 212.515 149.464 212.571 149.589 212.587C149.714 212.604 149.841 212.58 149.951 212.519C149.717 212.523 149.483 212.492 149.257 212.427V212.427Z" fill="url(#paint1_linear)"/>
<path d="M226.967 86.832C225.594 86.4378 223.634 85.7933 221.278 84.9745C223.727 81.8422 225.518 78.2534 226.547 74.4204L226.349 74.4962C226.418 74.2612 226.486 74.0337 226.547 73.7911C222.025 75.6184 217.023 72.5249 213.836 68.552C210.649 64.579 208.498 59.6508 205.006 55.9963C203.55 54.5425 201.985 53.2016 200.324 51.9854C199.294 51.2272 198.189 50.3705 196.931 50.3326C194.895 50.2719 193.301 52.2584 191.341 52.8422C190.052 53.1307 188.709 53.0811 187.445 52.6981C182.389 51.5457 177.532 49.4151 172.37 48.8541C169.608 48.5149 166.804 48.8292 164.188 49.7715C161.595 50.7495 160.413 52.6981 158.316 54.26C156.029 55.9356 151.56 55.8977 148.899 56.1934C145.67 56.5601 142.418 56.6944 139.169 56.5952C137.302 56.4343 135.422 56.503 133.572 56.8C129.706 57.6416 126.603 60.6971 123.705 63.6237C122.914 64.2858 122.345 65.1718 122.073 66.1637C122.036 66.443 122.036 66.7259 122.073 67.0053C122.044 67.7697 122.177 68.5316 122.462 69.2419C123.354 71.8737 124.615 74.3674 126.206 76.6495C127.388 78.3327 128.768 79.9173 129.439 81.9114C129.757 82.8917 129.925 83.9141 129.935 84.9441C129.902 86.0378 129.787 87.1276 129.592 88.2044C129.08 91.1813 128.239 94.0928 127.083 96.8857C126.366 98.3194 125.872 99.8534 125.619 101.435C125.597 101.758 125.597 102.082 125.619 102.405C125.428 107.409 130.507 111.011 131.491 115.985C131.571 116.397 131.62 116.816 131.635 117.236C131.529 120.337 129.752 123.369 127.129 124.575C127.358 124.666 127.594 124.742 127.83 124.818C127.605 124.958 127.371 125.085 127.129 125.197C127.609 125.379 128.097 125.538 128.593 125.667C125.612 128.249 123.106 131.327 121.189 134.765C112.366 151.097 52.6148 183.085 52.6148 183.085L53.4993 183.585L52.7825 184.048C47.6126 187.467 35.4808 197.437 46.4459 210.046C46.4459 210.046 55.0091 196.611 61.0102 190.887C61.2771 190.629 61.5439 190.394 61.7727 190.174C61.9045 190.376 61.9929 190.603 62.0323 190.84C62.0717 191.078 62.0612 191.321 62.0015 191.554L101.287 169.604C101.287 169.604 115.249 159.884 119.145 157.693C121.888 155.994 124.872 154.716 127.998 153.902L127.541 154.092C129.01 153.69 130.524 153.476 132.047 153.455C139.001 153.561 146.535 158.626 149.013 178.68C152.338 205.535 150.798 210.38 149.73 211.04C149.599 211.03 149.468 211.007 149.341 210.971C149.374 211 149.41 211.025 149.448 211.047C149.303 211.037 149.16 211.012 149.021 210.971C149.098 211.041 149.191 211.091 149.293 211.115C149.394 211.139 149.5 211.136 149.601 211.108C149.673 211.129 149.749 211.136 149.824 211.127C149.898 211.118 149.971 211.093 150.035 211.055C150.21 211.065 150.386 211.065 150.561 211.055C150.561 211.302 150.544 211.555 150.508 211.813C150.455 211.813 150.195 211.957 150.508 211.972C150.424 213.488 150.432 215.134 150.508 216.855C147.054 217.044 143.6 217.249 140.595 217.431L140.862 216.013L140.984 215.376C143.638 215.164 146.154 214.391 146.451 212.253C147.099 207.552 140.61 205.042 135.09 204.731C129.569 204.42 96.4601 206.612 96.4601 206.612C96.4601 206.612 91.496 213.003 107.242 214.952C107.71 215.194 108.195 215.447 108.699 215.71C114.867 219.205 123.232 225.642 127.243 228.812L127.8 229.251L126 230.707C135.738 232.898 145.155 269.898 150.348 286.814C155.541 303.729 166.902 303.115 176.32 300.605C185.142 298.255 186.232 272.779 186.377 269.58V269.254L202.07 288.527L203.26 289.99C203.717 290.228 204.17 290.45 204.617 290.658C216.497 296.276 229.62 285.502 225.891 273.219C222.117 260.838 216.261 242.527 212.357 234.786C209.085 228.304 204.861 217.537 202.299 210.797C202.632 210.664 202.955 210.51 203.267 210.334C203.267 210.334 203.206 210.031 203.107 209.478L203.267 209.394C203.267 209.394 199.455 189.893 199.287 176.034C199.287 175.791 199.287 175.538 199.287 175.275C199.287 175.124 199.287 174.972 199.287 174.828C202.123 174.184 203.923 173.933 203.923 173.933L203.976 173.327L203.649 173.395L205.227 155.434C205.227 155.434 211.022 143.174 206.584 138.071C205.235 136.579 204.334 134.74 203.984 132.763C203.222 128.07 203.984 120.238 214.316 113.733C230.223 103.702 236.43 95.5361 236.43 95.5361C236.43 95.5361 236.704 89.6829 226.967 86.832ZM195.375 99.2968V90.9945C198.326 90.8505 201.338 91.1917 204.304 90.9945C205.76 90.8934 207.203 90.6522 208.613 90.2742L209.329 90.7671C204.99 94.0861 200.313 96.9449 195.375 99.2968V99.2968ZM150.272 229.433C151.438 230.237 152.613 231.071 153.764 231.913C154.481 236.007 155.114 238.896 155.159 239.1C153.843 235.731 152.207 232.494 150.272 229.433V229.433Z" fill="url(#paint2_linear)"/>
<path d="M175.481 222.61L174.795 226.317L174.268 229.153L173.308 234.339L163.989 240.821C163.989 240.821 163.151 240.109 161.763 238.979C157.95 235.855 149.921 229.517 144.027 226.09C142.512 225.128 140.873 224.376 139.154 223.853L175.481 222.61Z" fill="#FFBDC6"/>
<path opacity="0.1" d="M175.481 222.61L174.795 226.317C172.741 226.431 170.68 226.327 168.649 226.006L146.909 226.317C145.879 226.257 144.919 226.173 144.019 226.082C142.504 225.12 140.865 224.368 139.146 223.845L175.481 222.61Z" fill="black"/>
<path d="M168.649 225.4C168.649 225.4 179.522 227.25 180.14 222.617C180.757 217.985 174.55 215.543 169.281 215.194C164.012 214.846 132.314 217.06 132.314 217.06C132.314 217.06 126.725 224.467 146.909 225.703L168.649 225.4Z" fill="#7679B4"/>
<path opacity="0.1" d="M175.481 222.61L174.795 226.317L174.268 229.153L173.308 234.339L163.989 240.821C163.989 240.821 163.151 240.109 161.763 238.979C157.95 235.855 149.921 229.517 144.027 226.09C142.512 225.128 140.873 224.376 139.154 223.853L175.481 222.61Z" fill="black"/>
<path opacity="0.1" d="M175.481 222.61L174.795 226.317C172.741 226.431 170.68 226.327 168.649 226.006L146.909 226.317C145.879 226.257 144.919 226.173 144.019 226.082C142.504 225.12 140.865 224.368 139.146 223.845L175.481 222.61Z" fill="black"/>
<path opacity="0.1" d="M168.649 225.4C168.649 225.4 179.522 227.25 180.14 222.617C180.757 217.985 174.55 215.543 169.281 215.194C164.012 214.846 132.314 217.06 132.314 217.06C132.314 217.06 126.725 224.467 146.909 225.703L168.649 225.4Z" fill="black"/>
<path d="M192.401 73.1467H135.57V140.156H192.401V73.1467Z" fill="#A66477"/>
<path opacity="0.1" d="M192.401 73.1467H135.57V140.156H192.401V73.1467Z" fill="black"/>
<path d="M68.9557 187.869C68.0178 188.104 66.8283 188.999 65.4938 190.303C59.752 195.944 51.5625 209.174 51.5625 209.174C41.0701 196.755 52.6834 186.937 57.6627 183.563C58.8675 182.744 59.6757 182.304 59.6757 182.304L68.9557 187.869Z" fill="#FFBDC6"/>
<path d="M174.863 94.3003C174.863 94.3003 177.662 113.756 187.285 118.388C196.908 123.021 174.863 131.664 174.863 131.664L144.736 120.549C144.736 120.549 161.816 114.991 158.4 98.622L174.863 94.3003Z" fill="#FFBDC6"/>
<path d="M142.593 211.335L141.907 215.043L141.381 217.878L140.42 223.064L131.102 229.547C131.102 229.547 130.263 228.834 128.875 227.705C125.062 224.581 117.033 218.242 111.139 214.815C109.624 213.854 107.985 213.101 106.266 212.579L142.593 211.335Z" fill="#FFBDC6"/>
<path opacity="0.1" d="M142.593 211.335L141.907 215.043C139.853 215.156 137.792 215.052 135.761 214.732L114.021 215.043C112.992 214.982 112.031 214.899 111.131 214.808C109.616 213.846 107.977 213.094 106.259 212.571L142.593 211.335Z" fill="black"/>
<path d="M135.73 214.118C135.73 214.118 146.604 215.968 147.222 211.335C147.839 206.703 141.632 204.231 136.348 203.928C131.064 203.624 99.3882 205.778 99.3882 205.778C99.3882 205.778 93.7989 213.185 113.983 214.421L135.73 214.118Z" fill="#7679B4"/>
<path opacity="0.1" d="M141.35 217.886L140.389 223.072L131.071 229.555C131.071 229.555 130.232 228.842 128.845 227.712L141.167 217.666L141.35 217.886Z" fill="black"/>
<path d="M202.833 288.58C202.406 288.373 201.973 288.153 201.536 287.921L200.4 286.48L185.394 267.525V267.859C185.294 271.005 184.212 296.101 175.778 298.414C166.773 300.886 155.899 301.5 150.935 284.827C145.971 268.154 136.958 231.716 127.64 229.555L141.457 218.28C141.457 218.28 150.607 228.895 154.344 239.116C154.206 238.463 147.885 209.114 153.101 203.928H198.44C198.44 203.928 205.425 223.747 210.244 233.573C213.981 241.201 219.585 259.23 223.207 271.43C226.791 283.5 214.271 294.115 202.833 288.58Z" fill="#7679B4"/>
<path opacity="0.1" d="M201.567 209.478C194.574 213.595 163.829 211.919 153.81 211.252L151.088 211.055C150.79 211.055 151.133 210.888 151.133 210.888L151.415 208.083L158.865 189.249L198.776 166.261C197.968 168.679 197.693 172.387 197.762 176.64C197.96 190.273 201.567 209.478 201.567 209.478Z" fill="black"/>
<path d="M201.567 208.56C194.574 212.677 163.829 211.002 153.81 210.334L151.088 210.137H150.638L151.133 210.008L153.589 209.364L158.865 188.362L198.776 165.358C197.968 167.777 197.693 171.485 197.762 175.738C197.96 189.348 201.567 208.56 201.567 208.56Z" fill="#F2F1F2"/>
<path opacity="0.1" d="M197.762 175.708C189.649 177.565 171.79 183.032 164.927 196.179C160.352 204.959 156.54 208.727 153.817 210.304L151.095 210.107L151.141 209.94L153.596 209.296L158.873 188.294L198.784 165.29C197.96 167.777 197.693 171.454 197.762 175.708Z" fill="black"/>
<path opacity="0.1" d="M59.6377 182.312L68.9557 187.869C68.0178 188.104 66.8283 188.999 65.4939 190.303C64.7313 188.028 59.8359 184.905 57.6246 183.57C58.8294 182.751 59.6377 182.312 59.6377 182.312Z" fill="black"/>
<path opacity="0.1" d="M149.456 210.494C149.352 210.552 149.232 210.575 149.114 210.56C148.996 210.545 148.886 210.492 148.8 210.41C149.013 210.47 149.234 210.499 149.456 210.494V210.494Z" fill="black"/>
<path d="M170.509 117.152C170.509 117.152 162.121 118.077 156.219 111.906C156.219 111.906 131.376 119.01 122.988 135.068C114.601 151.127 57.4568 182.622 57.4568 182.622C57.4568 182.622 67.3697 188.18 66.4623 190.962L104.04 169.346C104.04 169.346 117.391 159.77 121.12 157.61C124.849 155.449 145.346 142.173 149.692 178.301C154.039 214.429 149.692 210.145 149.692 210.145C149.692 210.145 155.907 212.306 164.943 194.981C173.979 177.656 201.902 173.676 201.902 173.676L203.427 155.479C203.427 155.479 208.971 143.409 204.724 138.374C203.428 136.893 202.568 135.085 202.238 133.15C201.529 128.525 202.238 120.814 212.151 114.408C227.401 104.551 233.273 96.499 233.273 96.499C233.273 96.499 233.585 90.6306 224.267 87.8556C214.949 85.0806 177.059 69.9471 177.059 69.9471L175.816 75.1938L205.631 96.1957C205.631 96.1957 190.724 108.236 178.943 107.933C178.897 107.88 181.07 116.841 170.509 117.152Z" fill="#565388"/>
<path opacity="0.1" d="M176.266 102.769C175.532 100.281 174.959 97.7486 174.55 95.1874L158.088 99.5394C158.808 102.663 158.679 105.921 157.714 108.979C161.078 109.871 164.633 109.758 167.933 108.652C171.233 107.546 174.131 105.497 176.266 102.762V102.769Z" fill="black"/>
<path d="M162.594 108.661C172.373 108.661 180.3 100.778 180.3 91.0552C180.3 81.3321 172.373 73.45 162.594 73.45C152.815 73.45 144.888 81.3321 144.888 91.0552C144.888 100.778 152.815 108.661 162.594 108.661Z" fill="#FFBDC6"/>
<path opacity="0.1" d="M172.004 51.015C176.914 51.5684 181.589 53.6686 186.423 54.8059C187.631 55.1826 188.918 55.2323 190.152 54.95C192.028 54.3738 193.553 52.4176 195.49 52.4783C196.687 52.4783 197.777 53.3274 198.738 54.1084C200.33 55.3091 201.826 56.6297 203.214 58.0586C206.546 61.66 208.62 66.5125 211.663 70.4247C214.705 74.337 219.501 77.385 223.825 75.588C220.889 86.961 211.251 95.6575 200.835 96.3626C196.679 96.6431 192.447 95.7864 188.398 96.9995C187.395 97.4062 186.336 97.6618 185.256 97.7577C182.969 97.7577 181.078 95.6423 179.629 93.5876C176.243 88.7503 173.529 83.261 169.716 78.8559C168.458 77.4001 166.971 76.0126 165.194 75.7473C163.418 75.4819 161.778 76.3235 160.192 77.1423C157.577 78.4919 154.9 79.887 152.872 82.1919C150.844 84.4968 149.562 87.9466 150.401 91.0704C150.851 92.7536 151.888 94.27 151.926 96.0366C151.926 98.8419 149.471 100.897 148.975 103.619C148.866 104.768 148.825 105.922 148.853 107.076C148.632 110.821 146.177 113.9 143.6 116.242C142.601 117.16 141.487 118.138 141.198 119.556C140.999 120.519 141.198 121.542 141.068 122.52C140.694 124.954 138.254 126.182 136.096 126.501C133.576 126.868 131.003 126.565 128.639 125.621C131.689 124.203 133.511 120.162 132.81 116.523C131.849 111.511 126.786 107.917 127.213 102.807C127.452 101.242 127.925 99.7217 128.616 98.296C129.721 95.539 130.524 92.6716 131.01 89.7435C131.509 87.4899 131.459 85.1504 130.865 82.9198C130.217 80.9561 128.898 79.3942 127.769 77.7337C126.241 75.4764 125.035 73.0191 124.186 70.4323C123.878 69.6678 123.76 68.8407 123.842 68.0213C124.088 67.0546 124.619 66.1833 125.368 65.5192C128.143 62.6305 131.117 59.6205 134.808 58.7864C136.571 58.4944 138.364 58.4256 140.145 58.5817C143.254 58.6801 146.366 58.5483 149.456 58.1875C152.003 57.8918 156.318 57.9297 158.469 56.2768C160.474 54.7604 161.61 52.827 164.089 51.8565C166.618 50.9359 169.336 50.6469 172.004 51.015V51.015Z" fill="black"/>
<path opacity="0.1" d="M181.848 232.8C181.848 232.8 192.096 252.869 188.993 259.048Z" fill="black"/>
<path opacity="0.1" d="M200.431 286.48L185.424 267.525V267.859C185.424 267.859 184.555 261.732 187.414 263.795C193.675 268.298 203.694 275.683 203.908 276.957C204.121 278.231 201.879 283.341 200.431 286.48Z" fill="black"/>
<g opacity="0.1">
<path opacity="0.1" d="M179.194 107.88C179.194 107.88 180.46 113.096 176.365 115.704C182.671 114.627 182.946 109.752 182.755 107.629C181.578 107.819 180.386 107.903 179.194 107.88V107.88Z" fill="black"/>
<path opacity="0.1" d="M61.1932 181.387C61.1932 181.387 118.337 149.891 126.725 133.833C132.741 122.308 147.237 115.401 154.938 112.414C149.318 114.286 130.408 121.466 123.301 135.068C114.913 151.127 57.7694 182.622 57.7694 182.622L61.1932 181.387Z" fill="black"/>
<path opacity="0.1" d="M190.312 105.431C200.034 102.398 209.329 94.9144 209.329 94.9144L179.515 73.9124L180.193 71.0313L177.341 69.894L176.098 75.1407L205.913 96.1427C201.129 99.8823 195.886 103.003 190.312 105.431V105.431Z" fill="black"/>
<path opacity="0.1" d="M190.503 176.595C194.312 175.302 198.222 174.32 202.192 173.661L202.245 173.062C198.245 173.935 194.319 175.117 190.503 176.595V176.595Z" fill="black"/>
<path opacity="0.1" d="M154.366 208.947H154.092C153.988 209.005 153.868 209.028 153.75 209.013C153.632 208.997 153.522 208.945 153.436 208.864C153.649 208.923 153.87 208.951 154.092 208.947C155.114 208.356 156.646 203.746 153.436 177.057C150.005 148.564 136.538 150.801 129.165 154.076C136.699 152.014 147.069 153.796 150.02 178.293C153.23 204.982 151.698 209.599 150.676 210.183C152 210.134 153.282 209.705 154.366 208.947Z" fill="black"/>
<path opacity="0.1" d="M150.676 210.191C150.454 210.195 150.233 210.166 150.02 210.107C150.106 210.189 150.216 210.242 150.334 210.257C150.452 210.272 150.572 210.249 150.676 210.191V210.191Z" fill="black"/>
</g>
<path d="M172.004 50.4159C176.914 50.9694 181.589 53.0696 186.423 54.2069C187.631 54.5836 188.918 54.6333 190.152 54.351C192.028 53.7748 193.553 51.8186 195.49 51.8793C196.687 51.8793 197.777 52.7285 198.738 53.5094C200.33 54.7101 201.826 56.0307 203.214 57.4596C206.546 61.061 208.62 65.9135 211.663 69.8257C214.705 73.738 219.501 76.786 223.825 74.989C220.889 86.362 211.251 95.0584 200.835 95.7636C196.679 96.0441 192.447 95.1873 188.398 96.4004C187.395 96.8072 186.336 97.0627 185.256 97.1586C182.969 97.1586 181.078 95.0433 179.629 92.9886C176.243 88.1513 173.529 82.662 169.716 78.2569C168.458 76.8011 166.971 75.4136 165.194 75.1483C163.418 74.8829 161.778 75.7245 160.192 76.5434C157.577 77.8929 154.9 79.288 152.872 81.5929C150.844 83.8978 149.562 87.3476 150.401 90.4714C150.851 92.1546 151.888 93.671 151.926 95.4375C151.926 98.2429 149.471 100.298 148.975 103.019C148.866 104.169 148.825 105.323 148.853 106.477C148.632 110.222 146.177 113.301 143.6 115.643C142.601 116.561 141.487 117.539 141.198 118.957C140.999 119.92 141.198 120.943 141.068 121.921C140.694 124.355 138.254 125.583 136.096 125.902C133.576 126.269 131.003 125.966 128.639 125.022C131.689 123.604 133.511 119.563 132.81 115.924C131.849 110.912 126.786 107.318 127.213 102.208C127.452 100.643 127.925 99.1227 128.616 97.697C129.721 94.94 130.524 92.0726 131.01 89.1445C131.509 86.8909 131.459 84.5515 130.865 82.3208C130.217 80.3571 128.898 78.7952 127.769 77.1347C126.241 74.8774 125.035 72.4202 124.186 69.8333C123.878 69.0688 123.76 68.2417 123.842 67.4223C124.088 66.4556 124.619 65.5842 125.368 64.9202C128.143 62.0315 131.117 59.0215 134.808 58.1874C136.571 57.8954 138.364 57.8266 140.145 57.9827C143.254 58.0811 146.366 57.9493 149.456 57.5885C152.003 57.2928 156.318 57.3307 158.469 55.6778C160.474 54.1614 161.61 52.228 164.089 51.2576C166.618 50.3369 169.336 50.0479 172.004 50.4159V50.4159Z" fill="#A66477"/>
<path d="M653.614 19.7812C653.614 19.6826 653.614 19.5917 653.614 19.5007C653.614 19.4097 653.614 19.3035 653.568 19.2126H653.446C653.446 19.0078 653.446 18.8031 653.446 18.5833C653.141 11.5548 643.365 -3.40439 639.446 0.962814C636.015 4.79928 641.192 14.5042 643.831 18.8714L644.067 19.2656L643.937 19.1822C643.937 19.1822 633.026 51.542 631.737 52.8006C630.448 54.0592 621.466 79.5042 609.624 82.3702C607.283 82.9237 605.338 83.4241 603.706 83.8866L603.836 83.4544C604.599 80.9751 605.537 78.6323 605.918 75.8724C606.299 73.1126 605.918 69.769 604.515 68.427C603.828 67.7598 602.99 67.6688 602.425 66.6073C602.059 65.6763 601.863 64.6878 601.846 63.6883L600.839 51.4207L601.541 51.2084C605.781 49.8588 609.891 46.6592 610.371 42.3527C610.224 42.4084 610.073 42.4564 609.921 42.4967C609.977 42.2463 610.02 41.9932 610.051 41.7385C606.49 43.1336 603.188 39.4639 599.757 37.8187C594.106 35.0664 587.648 37.6594 581.814 38.2887C575.203 39.009 568.928 36.2795 562.172 36.7723C558.496 37.0529 554.409 39.5322 554.607 43.1336C554.722 45.1125 556.132 46.7881 556.712 48.6836C558.176 53.2707 554.92 57.8729 552.068 61.7852C550.192 64.3555 548.393 67.4868 548.072 70.5044C541.507 63.6807 534.408 55.7954 533.584 52.8309L514.59 20.4712C514.59 20.4712 514.14 20.9488 513.416 21.6539C513.301 21.3052 513.164 20.8958 513.011 20.4863C510.587 13.7308 503.724 -2.63862 495.023 0.363833C486.323 3.36628 498.63 20.1451 503.983 26.8324L504.746 27.7574C504.297 27.8671 503.826 27.846 503.388 27.6968L524.571 63.8247C524.571 63.8247 528.422 70.7395 531.953 72.6198C531.953 72.6198 558.267 105.609 558.588 112.205C558.908 118.801 570.422 136.399 570.422 136.399C570.422 136.399 574.273 164.991 567.532 170.017H567.616H567.669H567.753H567.83H567.982H568.081H568.18H568.31H568.417H568.569H568.645C568.325 170.328 567.997 170.67 567.662 171.041C562.667 176.546 556.285 188.343 565.008 208.405C577.842 237.974 579.771 249.56 579.771 249.56C579.771 249.56 555.37 250.818 550.566 251.758C546.311 252.592 529.772 253.176 525.99 253.275C524.64 251.713 520.652 248.256 515.269 253.275C508.528 259.56 503.716 280.57 503.716 280.57C503.716 280.57 501.147 297.538 509.817 293.133C509.817 293.133 520.088 278.993 522.97 278.364C524.404 278.053 525.921 275.952 527.08 273.928L527.141 273.966C527.21 273.966 527.492 273.814 527.949 273.632C530.084 272.791 535.964 270.766 540.6 271.775C543.139 272.328 554.028 272.457 565.443 272.427C562.865 278.568 558.245 294.414 558.245 294.414C558.245 294.414 556.315 309.192 562.721 308.585C567.296 308.138 574.311 296.515 577.971 289.88C580.625 287.947 588.227 281.017 593.847 281.54L631.714 267.089C631.714 267.089 640.697 262.062 635.885 245.412C632.072 232.174 621.222 205.076 616.936 194.515L616.807 194.242C615.77 191.687 615.144 190.17 615.144 190.17C613.384 185.349 612.229 180.329 611.705 175.226C611.667 174.824 611.637 174.415 611.606 174.013C612.137 173.792 612.636 173.504 613.093 173.156C613.093 173.156 609.563 137.658 613.093 133.882L613.154 133.814V133.768L613.215 133.692L613.352 133.518L613.52 133.306C613.711 133.055 613.94 132.745 614.199 132.366C616.219 129.424 619.986 122.706 618.904 114.775C618.858 114.432 618.802 114.085 618.736 113.737C618.321 111.586 617.581 109.51 616.54 107.58C616.387 106.777 616.293 105.963 616.258 105.146C616.258 104.684 616.258 104.176 616.258 103.63V103.539C616.258 103.392 616.258 103.246 616.258 103.099V102.993C616.258 102.637 616.319 102.235 616.372 101.901V101.765C616.372 101.628 616.395 101.489 616.441 101.348V101.173C616.441 101.037 616.502 100.9 616.532 100.764V100.62C616.578 100.438 616.624 100.256 616.685 100.074V99.983C616.73 99.8314 616.781 99.6823 616.837 99.5357L616.906 99.3613L617.058 98.9974L617.135 98.8154C617.196 98.6789 617.264 98.5425 617.333 98.406L617.386 98.2923C617.478 98.1255 617.574 97.9612 617.676 97.7994L617.76 97.6706L618.011 97.3142L618.133 97.155L618.4 96.8365L618.522 96.7001C618.66 96.556 618.797 96.4119 618.949 96.2755C623.12 92.4845 641.734 64.545 641.734 64.545C641.734 64.545 646.225 58.2596 646.225 54.1805C646.477 54.0895 654.414 27.7802 653.614 19.7812ZM603.645 254.632C603.188 250.325 602.73 244.988 602.311 239.468L609.57 250.72C609.57 250.72 608.884 254.147 603.645 254.632Z" fill="url(#paint3_linear)"/>
<path d="M527.957 252.251C527.957 252.251 523.611 245.428 517.083 251.637C510.556 257.847 505.905 278.5 505.905 278.5C505.905 278.5 503.419 295.18 511.807 290.851C511.807 290.851 521.72 276.953 524.541 276.339C527.362 275.725 530.443 267.999 530.443 267.999L527.957 252.251Z" fill="#493545"/>
<path d="M574.54 268.924C574.54 268.924 568.638 266.141 566.777 268.31C564.917 270.478 558.702 292.087 558.702 292.087C558.702 292.087 556.842 306.295 563.049 305.674C569.256 305.052 580.129 282.807 580.129 282.807L574.54 268.924Z" fill="#493545"/>
<path opacity="0.05" d="M574.54 268.924C574.54 268.924 568.638 266.141 566.777 268.31C564.917 270.478 558.702 292.087 558.702 292.087C558.702 292.087 556.842 306.295 563.049 305.674C569.256 305.052 580.129 282.807 580.129 282.807L574.54 268.924Z" fill="black"/>
<path d="M595.037 226.928L608.388 247.619C608.388 247.619 607.458 252.251 599.383 251.326L571.741 268.621C571.741 268.621 569.339 289.676 577.018 287.765C578.261 287.454 586.931 278.5 593.168 279.122L629.823 264.913C629.823 264.913 638.516 259.97 633.857 243.608C629.198 227.246 613.795 189.306 613.795 189.306L589.447 202.847L595.037 226.928Z" fill="#3E3D77"/>
<path opacity="0.05" d="M595.037 226.928L608.388 247.619C608.388 247.619 607.458 252.251 599.383 251.326L571.741 268.621C571.741 268.621 569.339 289.676 577.018 287.765C578.261 287.454 586.931 278.5 593.168 279.122L629.823 264.913C629.823 264.913 638.516 259.97 633.857 243.608C629.198 227.246 613.795 189.306 613.795 189.306L589.447 202.847L595.037 226.928Z" fill="black"/>
<path d="M603.424 257.498C605.285 269.235 594.732 270.16 594.732 270.16C594.732 270.16 547.211 271.085 541.622 269.849C536.032 268.613 528.575 272.01 528.575 272.01C518.944 266.141 526.714 251.63 526.714 251.63C526.714 251.63 546.593 251.015 551.252 250.113C555.911 249.211 579.512 247.93 579.512 247.93C579.512 247.93 577.651 236.504 565.222 207.48C556.781 187.767 562.934 176.166 567.791 170.761C569.031 169.326 570.466 168.071 572.054 167.03L610.257 168.88C610.216 170.796 610.287 172.712 610.47 174.62C611.123 181.168 612.836 187.569 615.541 193.575C613.368 193.575 599.391 206.547 599.391 206.547C599.391 206.547 601.556 245.769 603.424 257.498Z" fill="#3E3D77"/>
<path opacity="0.1" d="M529.505 252.865C529.505 252.865 549.384 252.251 554.043 251.349C558.702 250.447 582.302 249.188 582.302 249.188C582.302 249.188 580.442 237.762 568.013 208.738C559.571 189.025 565.725 177.425 570.582 172.019C571.822 170.585 573.256 169.329 574.845 168.289L610.241 170.002C610.241 169.638 610.241 169.244 610.241 168.903L572.039 167.053C570.45 168.093 569.016 169.349 567.776 170.783C562.942 176.197 556.765 187.79 565.206 207.503C577.666 236.504 579.511 247.93 579.511 247.93C579.511 247.93 555.873 249.165 551.252 250.09C546.631 251.015 526.714 251.607 526.714 251.607C526.714 251.607 518.952 266.126 528.575 272.017C528.575 272.017 528.864 271.881 529.337 271.684C522.94 265.141 529.505 252.865 529.505 252.865Z" fill="black"/>
<path d="M586.336 53.6877H567.082V102.167H586.336V53.6877Z" fill="#493545"/>
<path opacity="0.1" d="M586.336 53.6877H567.082V102.167H586.336V53.6877Z" fill="black"/>
<path d="M597.347 46.5758C598.01 46.7578 598.758 46.7805 599.208 47.6904C599.487 48.4175 599.639 49.1868 599.657 49.9649L600.87 64.9469C600.887 65.9278 601.078 66.898 601.434 67.8129C601.945 68.8288 602.791 68.9501 603.455 69.6022C604.789 70.9214 605.178 74.2272 604.812 76.9188C604.446 79.6104 603.523 81.9153 602.799 84.3491C601.762 87.8368 601.076 91.7566 599.619 94.6984C598.163 97.6402 595.517 99.2476 593.809 96.7759C592.101 94.3042 592.33 89.3153 592.009 85.2286C591.476 78.4048 588.799 72.5212 588.616 65.652C588.464 60.0944 589.966 54.9084 590.904 49.6389C591.575 46.0223 591.613 41.6324 592.589 38.3797C593.405 42.2465 594.96 45.9238 597.347 46.5758Z" fill="#493545"/>
<path opacity="0.1" d="M597.347 46.5758C598.01 46.7578 598.758 46.7805 599.208 47.6904C599.487 48.4175 599.639 49.1868 599.657 49.9649L600.87 64.9469C600.887 65.9278 601.078 66.898 601.434 67.8129C601.945 68.8288 602.791 68.9501 603.455 69.6022C604.789 70.9214 605.178 74.2272 604.812 76.9188C604.446 79.6104 603.523 81.9153 602.799 84.3491C601.762 87.8368 601.076 91.7566 599.619 94.6984C598.163 97.6402 595.517 99.2476 593.809 96.7759C592.101 94.3042 592.33 89.3153 592.009 85.2286C591.476 78.4048 588.799 72.5212 588.616 65.652C588.464 60.0944 589.966 54.9084 590.904 49.6389C591.575 46.0223 591.613 41.6324 592.589 38.3797C593.405 42.2465 594.96 45.9238 597.347 46.5758Z" fill="black"/>
<path d="M515.84 25.2781L508.391 31.4574C508.391 31.4574 507.506 30.4263 506.187 28.7582C501.009 22.1847 489.106 5.69396 497.517 2.74458C505.928 -0.204795 512.577 15.8765 514.925 22.5183C515.52 24.2015 515.84 25.2781 515.84 25.2781Z" fill="#C77485"/>
<path d="M650.32 23.1172C647.216 27.7498 642.87 23.1172 642.87 23.1172C642.87 23.1172 642.313 22.2908 641.528 20.9564C638.973 16.6574 633.964 7.12691 637.281 3.3511C641.093 -0.963023 650.541 13.7611 650.831 20.6683C650.92 21.5175 650.742 22.3735 650.32 23.1172V23.1172Z" fill="#C77485"/>
<path d="M573.915 73.143C573.915 73.143 580.129 92.9091 578.261 98.7699C576.393 104.631 591.62 111.455 591.62 111.455H609.014C609.014 111.455 615.228 98.7927 613.673 95.0851C612.117 91.3776 598.765 88.6026 598.765 88.6026C598.765 88.6026 591.003 88.6026 591.315 67.9114L573.915 73.143Z" fill="#C77485"/>
<path opacity="0.1" d="M515.84 25.2781L508.391 31.4574C508.391 31.4574 507.506 30.4263 506.187 28.7582C508.894 28.2806 513.095 24.3531 514.933 22.5183C515.52 24.2015 515.84 25.2781 515.84 25.2781Z" fill="black"/>
<path opacity="0.1" d="M650.32 23.1173C647.216 27.7498 642.87 23.1173 642.87 23.1173C642.87 23.1173 642.313 22.2908 641.528 20.9564L641.627 20.6455C643.64 22.0785 649.9 20.8578 650.831 20.6455C650.925 21.5023 650.747 22.367 650.32 23.1173V23.1173Z" fill="black"/>
<path opacity="0.1" d="M610.455 174.612C600.847 178.972 569.629 171.208 567.753 170.745C568.993 169.311 570.427 168.055 572.016 167.015L610.218 168.865C610.185 170.784 610.264 172.703 610.455 174.612V174.612Z" fill="black"/>
<path d="M577.956 90.1265C577.956 90.1265 570.506 92.5982 559.945 83.0222C559.945 83.0222 536.307 59.8594 534.782 54.3018L516.481 22.4576C516.481 22.4576 508.718 30.7978 505.607 29.5619L526.104 65.0757C526.104 65.0757 529.833 71.8995 533.249 73.7192C533.249 73.7192 558.717 106.147 559.022 112.63C559.327 119.112 570.498 136.475 570.498 136.475C570.498 136.475 574.227 164.574 567.7 169.517C567.7 169.517 604.034 178.782 611.797 172.603C611.797 172.603 608.381 137.726 611.797 134.003C611.797 134.003 622.358 121.652 615.213 108.065C615.213 108.065 613.688 100.658 617.699 96.9502C621.71 93.2427 639.751 65.7581 639.751 65.7581C639.751 65.7581 644.098 59.5788 644.098 55.568C644.098 55.568 652.173 28.3943 650.96 21.29C650.96 21.29 643.815 22.8064 641.642 21.29C641.642 21.29 631.081 53.1342 629.838 54.3321C628.595 55.5301 619.925 80.5808 608.411 83.3634C596.897 86.146 595.059 87.3742 595.059 87.3742C595.059 87.3742 617.417 101.272 606.551 107.444C595.685 113.615 577.956 90.1265 577.956 90.1265Z" fill="#FFAAC4"/>
<path opacity="0.1" d="M592.07 77.8968C591.701 74.9879 591.551 72.0557 591.62 69.1245L574.227 74.3712C574.685 75.5233 575.049 76.7098 575.318 77.9195C577.308 78.7915 579.992 80.8538 582.302 80.8538C585.797 80.9674 589.232 79.9277 592.07 77.8968V77.8968Z" fill="black"/>
<path d="M581.99 79.9364C590.909 79.9364 598.14 72.7467 598.14 63.8778C598.14 55.0089 590.909 47.8192 581.99 47.8192C573.07 47.8192 565.839 55.0089 565.839 63.8778C565.839 72.7467 573.07 79.9364 581.99 79.9364Z" fill="#C77485"/>
<path opacity="0.1" d="M562.774 39.1379C559.221 39.4109 555.256 41.8523 555.454 45.393C555.561 47.3416 556.903 48.9869 557.49 50.852C558.9 55.3633 555.759 59.8897 552.998 63.7414C550.238 67.593 547.661 72.6956 550.025 76.7747C550.698 77.7568 551.426 78.7009 552.205 79.6028C555.126 83.5226 555.088 88.8148 556.384 93.5232C558.04 99.5469 561.953 104.711 567.319 107.955C572.686 111.198 579.098 112.274 585.238 110.962C582.927 108.028 581.774 104.355 581.997 100.635C582.173 97.9359 583.05 95.1154 581.997 92.621C580.64 89.4138 576.66 88.1476 574.608 85.3423C572.557 82.537 572.695 78.6475 573.686 75.3038C574.677 71.9602 576.393 68.8592 577.216 65.4473C577.42 64.4518 577.674 63.4674 577.979 62.4979C579.412 58.4491 583.698 56.0987 587.892 55.0904C592.086 54.082 596.493 54.0213 600.588 52.6945C604.683 51.3676 608.663 48.259 609.136 43.9904C605.689 45.3627 602.494 41.784 599.169 40.1388C593.695 37.4396 587.449 39.9795 581.807 40.6013C575.379 41.314 569.278 38.6679 562.774 39.1379Z" fill="black"/>
<path d="M562.461 38.5238C558.908 38.7967 554.943 41.2381 555.141 44.7789C555.248 46.7275 556.59 48.3728 557.177 50.2379C558.588 54.7492 555.446 59.2756 552.686 63.1272C549.925 66.9789 547.348 72.0815 549.712 76.1606C550.386 77.1427 551.114 78.0868 551.893 78.9886C554.813 82.9085 554.775 88.2007 556.071 92.9091C557.727 98.9328 561.64 104.097 567.007 107.34C572.373 110.584 578.786 111.66 584.925 110.348C582.614 107.414 581.461 103.741 581.685 100.021C581.86 97.3218 582.737 94.5013 581.685 92.0069C580.327 88.7997 576.347 87.5335 574.296 84.7282C572.245 81.9229 572.382 78.0333 573.373 74.6897C574.364 71.3461 576.08 68.245 576.904 64.8332C577.107 63.8377 577.361 62.8533 577.666 61.8838C579.1 57.835 583.385 55.4846 587.579 54.4762C591.773 53.4678 596.18 53.4072 600.275 52.0803C604.37 50.7535 608.35 47.6449 608.823 43.3762C605.376 44.7486 602.181 41.1699 598.857 39.5246C593.382 36.8254 587.137 39.3654 581.494 39.9871C575.081 40.6922 569.004 38.0158 562.461 38.5238Z" fill="#493545"/>
<path opacity="0.1" d="M597.988 99.5508C597.988 99.5508 604.454 105.29 605.727 107.823Z" fill="black"/>
<path opacity="0.1" d="M611.98 133.829C611.98 133.829 603.905 133.829 600.176 134.754C596.447 135.679 587.442 134.754 587.442 134.754" fill="black"/>
<g opacity="0.1">
<path opacity="0.1" d="M606.528 107.421C605.832 107.817 605.078 108.104 604.294 108.27C606.319 108.717 608.439 108.415 610.257 107.421C621.13 101.242 598.765 87.3515 598.765 87.3515H595.037C595.037 87.3515 617.401 101.249 606.528 107.421Z" fill="black"/>
<path opacity="0.1" d="M651.014 21.8283C651.014 21.6312 650.968 21.4417 650.937 21.2673C649.66 21.5305 648.37 21.7254 647.071 21.8511C648.382 21.9944 649.705 21.9868 651.014 21.8283V21.8283Z" fill="black"/>
<path opacity="0.1" d="M571.436 169.494C577.956 164.551 574.235 136.452 574.235 136.452C574.235 136.452 563.056 119.158 562.744 112.675C562.431 106.193 536.97 73.7647 536.97 73.7647C533.554 71.9147 529.825 65.1213 529.825 65.1213C529.825 65.1213 508.703 30.8433 505.6 29.6074L526.096 65.1213C526.096 65.1213 529.825 71.945 533.241 73.7647C533.241 73.7647 558.71 106.193 559.015 112.675C559.32 119.158 570.498 136.475 570.498 136.475C570.498 136.475 574.227 164.574 567.7 169.517C567.7 169.517 590.034 175.211 603.424 174.696C590.004 174.225 571.436 169.494 571.436 169.494Z" fill="black"/>
<path opacity="0.1" d="M578.139 90.3691L577.956 90.1341C577.743 90.1966 577.527 90.2447 577.308 90.2781C577.598 90.316 577.872 90.3464 578.139 90.3691Z" fill="black"/>
</g>
<g opacity="0.1">
<path opacity="0.1" d="M650.937 21.2294L650.747 21.2673C650.419 30.7523 643.8 53.0357 643.8 53.0357C643.8 57.0465 639.454 63.2258 639.454 63.2258C639.454 63.2258 621.443 90.7103 617.401 94.4179C613.36 98.1255 614.916 105.533 614.916 105.533L614.954 105.609C614.832 103.114 615.137 99.2476 617.706 96.882C621.74 93.1745 639.759 65.6899 639.759 65.6899C639.759 65.6899 644.105 59.5106 644.105 55.4998C644.105 55.5453 652.18 28.3716 650.937 21.2294Z" fill="black"/>
<path opacity="0.1" d="M611.5 131.509C611.965 134.132 611.652 131.357 611.812 133.981C611.812 133.981 619.437 125.087 617.356 114.093C617.981 123.919 611.5 131.509 611.5 131.509Z" fill="black"/>
</g>
</g>
<defs>
<linearGradient id="paint0_linear" x1="383.922" y1="349.05" x2="383.922" y2="35.1572" gradientUnits="userSpaceOnUse">
<stop stop-color="#808080" stop-opacity="0.25"/>
<stop offset="0.54" stop-color="#808080" stop-opacity="0.12"/>
<stop offset="1" stop-color="#808080" stop-opacity="0.1"/>
</linearGradient>
<linearGradient id="paint1_linear" x1="333.967" y1="293.027" x2="333.967" y2="292.991" gradientUnits="userSpaceOnUse">
<stop stop-color="#808080" stop-opacity="0.25"/>
<stop offset="0.54" stop-color="#808080" stop-opacity="0.12"/>
<stop offset="1" stop-color="#808080" stop-opacity="0.1"/>
</linearGradient>
<linearGradient id="paint2_linear" x1="49145.4" y1="153240" x2="49145.4" y2="68668.2" gradientUnits="userSpaceOnUse">
<stop stop-color="#808080" stop-opacity="0.25"/>
<stop offset="0.54" stop-color="#808080" stop-opacity="0.12"/>
<stop offset="1" stop-color="#808080" stop-opacity="0.1"/>
</linearGradient>
<linearGradient id="paint3_linear" x1="138342" y1="185779" x2="138342" y2="60177.6" gradientUnits="userSpaceOnUse">
<stop stop-color="#808080" stop-opacity="0.25"/>
<stop offset="0.54" stop-color="#808080" stop-opacity="0.12"/>
<stop offset="1" stop-color="#808080" stop-opacity="0.1"/>
</linearGradient>
<clipPath id="clip0">
<rect width="700" height="350" fill="white"/>
</clipPath>
</defs>
</svg>
