<svg width="700" height="350" viewBox="0 0 700 350" fill="none" xmlns="http://www.w3.org/2000/svg">
<path opacity="0.1" d="M690.971 0H9.02912C4.04247 0 0 5.25256 0 11.7319V338.268C0 344.748 4.04247 350 9.02912 350H690.971C695.958 350 700 344.748 700 338.268V11.7319C700 5.25256 695.958 0 690.971 0Z" fill="#0284C7"/>
<path d="M64.4673 17.7615L644.269 32.9442C649.513 33.0815 653.631 37.444 653.465 42.6881L644.611 322.548C644.445 327.792 640.059 331.932 634.814 331.795L55.0124 316.612C49.7675 316.475 45.6501 312.112 45.8161 306.868L54.6701 27.0081C54.836 21.764 59.2224 17.6242 64.4673 17.7615Z" fill="white" stroke="#9D9CB5"/>
<path d="M562.172 88.8195L130.331 77.5114L130.22 81.0185L562.061 92.3266L562.172 88.8195Z" fill="#3F3D56"/>
<path d="M562.172 120.397L130.331 109.089L130.22 112.596L562.061 123.904L562.172 120.397Z" fill="#3F3D56"/>
<path d="M562.172 151.974L130.331 140.666L130.22 144.173L562.061 155.481L562.172 151.974Z" fill="#3F3D56"/>
<path d="M214.579 70.4423L204.173 70.1698L203.249 99.3957L213.654 99.6682L214.579 70.4423Z" fill="#0EA5E9"/>
<path d="M332.993 102.02L322.587 101.747L321.663 130.973L332.068 131.245L332.993 102.02Z" fill="#0EA5E9"/>
<path d="M535.988 133.597L525.582 133.324L524.658 162.55L535.064 162.823L535.988 133.597Z" fill="#0EA5E9"/>
<path d="M283.76 220.84L130.275 216.821L130.164 220.328L283.649 224.348L283.76 220.84Z" fill="#3F3D56"/>
<path d="M207.002 232.7L130.259 230.691L130.148 234.198L206.891 236.208L207.002 232.7Z" fill="#3F3D56"/>
<path d="M153.264 265.922L129.2 265.292L129.885 243.664L153.298 244.278L153.261 245.447L131.148 244.868L130.538 264.157L152 264.719L152.348 253.723L153.649 253.757L153.264 265.922Z" fill="#3F3D56"/>
<path d="M562.228 220.84L408.743 216.821L408.632 220.328L562.117 224.348L562.228 220.84Z" fill="#3F3D56"/>
<path d="M458.149 232.343L408.721 231.049L408.611 234.556L458.038 235.85L458.149 232.343Z" fill="#3F3D56"/>
<path d="M562.249 232.343L512.822 231.049L512.711 234.556L562.138 235.85L562.249 232.343Z" fill="#3F3D56"/>
<path d="M431.731 265.922L407.668 265.292L408.352 243.664L432.416 244.295L431.731 265.922ZM409.006 264.157L430.468 264.719L431.078 245.43L409.616 244.868L409.006 264.157Z" fill="#3F3D56"/>
<path d="M134.162 250.652L141.034 258.042L156.987 244.776" stroke="#57B894" stroke-width="4" stroke-miterlimit="10"/>
</svg>
