<svg width="700" height="350" viewBox="0 0 700 350" fill="none" xmlns="http://www.w3.org/2000/svg">
<path opacity="0.1" d="M690.971 0H9.02912C4.04247 0 0 5.25256 0 11.7319V338.268C0 344.748 4.04247 350 9.02912 350H690.971C695.958 350 700 344.748 700 338.268V11.7319C700 5.25256 695.958 0 690.971 0Z" fill="#0284C7"/>
<path d="M69.7412 16.8233L653.58 31.7038C655.524 31.7534 657.294 32.8366 658.577 34.6189C659.859 36.4016 660.632 38.861 660.563 41.5749L653.337 325.103C653.268 327.817 652.37 330.234 650.998 331.949C649.627 333.663 647.804 334.655 645.859 334.605L62.0211 319.725C60.0765 319.675 58.3065 318.592 57.0242 316.81C55.7417 315.027 54.9685 312.568 55.0376 309.854L62.264 26.3259C62.3332 23.612 63.2307 21.1951 64.6023 19.4801C65.9737 17.7654 67.7967 16.7738 69.7412 16.8233Z" fill="white" stroke="#9D9CB5"/>
<path opacity="0.2" d="M86.9734 78.2571L637.293 92.2471" stroke="#5A5773" stroke-miterlimit="10"/>
<path opacity="0.2" d="M85.8833 121.247L636.203 135.237" stroke="#5A5773" stroke-miterlimit="10"/>
<path opacity="0.2" d="M84.7933 164.227L635.113 178.217" stroke="#5A5773" stroke-miterlimit="10"/>
<path opacity="0.2" d="M83.6934 207.217L634.023 221.207" stroke="#5A5773" stroke-miterlimit="10"/>
<path opacity="0.2" d="M133.713 196.817L132.323 251.467" stroke="#5A5773" stroke-miterlimit="10" stroke-dasharray="12 12"/>
<path opacity="0.2" d="M82.6034 250.207L632.923 264.187" stroke="#5A5773" stroke-miterlimit="10"/>
<path opacity="0.2" d="M194.563 253.047L196.633 171.577" stroke="#5A5773" stroke-miterlimit="10" stroke-dasharray="12 12"/>
<path opacity="0.2" d="M558.613 165.137C548.803 165.987 539.223 160.487 533.353 154.707C527.273 148.707 522.863 141.327 518.603 134.147C517.253 131.877 515.853 129.537 514.443 127.277C507.013 115.497 499.593 107.577 491.103 102.347C487.993 100.431 484.657 98.9065 481.173 97.8071C480.839 98.6011 480.361 99.3266 479.763 99.9471C478.479 101.284 476.717 102.058 474.863 102.097H474.533C472.87 102.052 471.278 101.417 470.041 100.305C468.804 99.1923 468.004 97.6759 467.783 96.0271C464.634 96.1765 461.527 96.8141 458.573 97.9171C449.843 101.207 443.213 108.277 437.183 115.247C429.883 123.667 422.843 132.497 416.283 141.507C414.95 143.327 413.617 145.157 412.283 146.997C405.163 156.937 397.803 167.207 388.283 175.237C375.503 186.077 360.133 190.747 347.163 187.737C331.603 184.127 320.473 170.377 312.523 158.797C311.523 157.297 310.523 155.797 309.443 154.267C302.023 143.267 294.353 131.897 283.033 125.267C268.123 116.517 247.533 118.027 234.033 128.837C227.453 134.107 222.513 141.267 217.723 148.187C216.083 150.567 214.383 153.027 212.633 155.387C203.633 167.477 194.563 174.037 184.783 175.457C180.905 175.887 176.991 175.887 173.113 175.457C170.533 175.277 167.863 175.077 165.253 175.147C158.742 175.425 152.412 177.382 146.881 180.829C141.349 184.276 136.803 189.094 133.683 194.817L132.303 252.377L564.613 263.377L567.033 168.147C566.292 168.55 565.475 168.792 564.634 168.858C563.793 168.924 562.948 168.811 562.153 168.528C561.359 168.245 560.633 167.798 560.023 167.215C559.413 166.632 558.933 165.928 558.613 165.147V165.137Z" fill="#0284C7"/>
<path opacity="0.2" d="M261.903 119.577L258.473 254.677" stroke="#5A5773" stroke-miterlimit="10" stroke-dasharray="12 12"/>
<path opacity="0.2" d="M322.193 171.267L320.033 256.237" stroke="#5A5773" stroke-miterlimit="10" stroke-dasharray="12 12"/>
<path opacity="0.2" d="M382.153 181.237L380.213 257.767" stroke="#5A5773" stroke-miterlimit="10" stroke-dasharray="12 12"/>
<path opacity="0.2" d="M440.343 112.747L436.623 259.197" stroke="#5A5773" stroke-miterlimit="10" stroke-dasharray="12 12"/>
<path opacity="0.2" d="M499.563 107.637L495.673 260.707" stroke="#5A5773" stroke-miterlimit="10" stroke-dasharray="12 12"/>
<path opacity="0.2" d="M565.153 165.187L562.673 262.407" stroke="#5A5773" stroke-miterlimit="10" stroke-dasharray="12 12"/>
<path d="M480.573 91.0571C479.909 90.4191 479.126 89.9185 478.268 89.5839C477.41 89.2493 476.494 89.0872 475.573 89.1071C473.924 89.1372 472.339 89.7487 471.097 90.8336C469.854 91.9185 469.035 93.4071 468.783 95.0371C468.721 95.4339 468.694 95.8355 468.703 96.2371C468.703 96.5071 468.703 96.7771 468.763 97.0371C468.976 98.6038 469.713 100.052 470.853 101.147C472.095 102.384 473.762 103.099 475.513 103.147H475.843C477.699 103.113 479.465 102.343 480.753 101.007C481.348 100.384 481.826 99.6593 482.163 98.8671C482.424 98.245 482.593 97.588 482.663 96.9171C482.688 96.6143 482.688 96.3099 482.663 96.0071C482.658 95.085 482.471 94.173 482.112 93.3236C481.754 92.4741 481.231 91.7038 480.573 91.0571ZM480.223 98.2571C480 98.744 479.692 99.1875 479.313 99.5671C478.674 100.227 477.865 100.698 476.976 100.929C476.086 101.159 475.151 101.14 474.271 100.873C473.392 100.607 472.603 100.103 471.991 99.4174C471.38 98.7318 470.969 97.8909 470.803 96.9871C470.748 96.7272 470.718 96.4627 470.713 96.1971C470.703 95.7936 470.743 95.3904 470.833 94.9971C471.079 93.9061 471.684 92.929 472.55 92.222C473.417 91.515 474.495 91.1189 475.613 91.0971H475.843C477.128 91.1302 478.351 91.6566 479.257 92.5671C480.164 93.4777 480.686 94.7023 480.713 95.9871C480.713 96.0871 480.713 96.1971 480.713 96.2971C480.696 96.9784 480.528 97.6476 480.223 98.2571V98.2571Z" fill="#0284C7"/>
<path d="M565.213 169.877C568.527 169.877 571.213 167.191 571.213 163.877C571.213 160.563 568.527 157.877 565.213 157.877C561.9 157.877 559.213 160.563 559.213 163.877C559.213 167.191 561.9 169.877 565.213 169.877Z" fill="#0284C7"/>
<path d="M470.713 96.197C470.718 96.4626 470.748 96.7272 470.803 96.987C470.123 96.987 469.443 96.987 468.803 97.037C465.651 97.1875 462.541 97.825 459.583 98.927C450.853 102.217 444.223 109.287 438.183 116.257C430.883 124.667 423.843 133.507 417.273 142.507C415.943 144.327 414.633 146.167 413.273 148.007C406.143 157.947 398.783 168.207 389.273 176.247C376.483 187.077 361.103 191.747 348.123 188.737C332.583 185.137 321.453 171.377 313.453 159.797C312.453 158.307 311.393 156.797 310.373 155.267C302.943 144.267 295.263 132.897 283.943 126.267C269.033 117.517 248.423 119.027 234.943 129.837C228.453 135.097 223.453 142.257 218.663 149.177C217.013 151.557 215.313 154.027 213.563 156.377C204.563 168.467 195.483 175.027 185.703 176.447C181.825 176.872 177.912 176.872 174.033 176.447C171.417 176.209 168.79 176.105 166.163 176.137C159.186 176.427 152.426 178.649 146.636 182.554C140.847 186.46 136.256 191.896 133.373 198.257L131.533 197.457C134.575 190.753 139.417 185.024 145.52 180.907C151.623 176.79 158.748 174.447 166.103 174.137C168.8 174.097 171.498 174.204 174.183 174.457C177.916 174.862 181.681 174.862 185.413 174.457C194.643 173.127 203.323 166.817 211.953 155.177C213.683 152.847 215.373 150.397 217.013 148.027C221.883 141.027 226.923 133.717 233.723 128.257C240.933 122.618 249.657 119.252 258.785 118.588C267.914 117.924 277.034 119.991 284.983 124.527C296.703 131.397 304.513 142.957 312.073 154.147C313.073 155.647 314.073 157.147 315.143 158.657C322.893 169.937 333.693 183.327 348.603 186.777C360.963 189.647 375.693 185.137 388.003 174.707C397.293 166.837 404.603 156.707 411.653 146.827C412.963 144.987 414.293 143.147 415.653 141.317C422.263 132.317 429.333 123.397 436.653 114.927C442.863 107.767 449.653 100.497 458.863 97.0471C462.053 95.8684 465.406 95.1937 468.803 95.0471C469.473 95.0471 470.163 94.9871 470.803 95.0471C470.727 95.4254 470.697 95.8115 470.713 96.197Z" fill="#0284C7"/>
<path d="M565.563 164.817C553.833 169.197 541.433 162.657 534.373 155.717C528.293 149.717 523.883 142.327 519.623 135.147C518.273 132.887 516.873 130.537 515.453 128.287C508.023 116.497 500.603 108.577 492.103 103.347C488.991 101.436 485.656 99.9148 482.173 98.8171C481.533 98.6071 480.883 98.4271 480.173 98.2571C480.477 97.6506 480.644 96.985 480.663 96.3071C481.323 96.4771 481.973 96.6671 482.663 96.8671C486.338 98.0191 489.856 99.6248 493.133 101.647C501.913 107.037 509.533 115.157 517.133 127.217C518.563 129.497 519.963 131.847 521.333 134.137C525.533 141.197 529.873 148.507 535.763 154.287C542.393 160.807 554.003 166.997 564.853 162.947L565.563 164.817Z" fill="#0284C7"/>
<path opacity="0.5" d="M106.68 69.7872L88.0863 69.3133C87.5895 69.3007 87.1764 69.6932 87.1637 70.1901L86.9803 77.3878C86.9676 77.8847 87.3601 78.2977 87.857 78.3104L106.451 78.7843C106.948 78.797 107.361 78.4044 107.374 77.9076L107.557 70.7099C107.57 70.213 107.177 69.7999 106.68 69.7872Z" fill="#0284C7"/>
<path d="M105.576 112.765L86.9816 112.291C86.4847 112.279 86.0716 112.671 86.059 113.168L85.8755 120.366C85.8629 120.863 86.2554 121.276 86.7523 121.288L105.346 121.762C105.843 121.775 106.256 121.382 106.269 120.886L106.452 113.688C106.465 113.191 106.072 112.778 105.576 112.765Z" fill="#0284C7"/>
<path opacity="0.5" d="M104.481 155.764L85.8866 155.29C85.3897 155.277 84.9767 155.669 84.964 156.166L84.7806 163.364C84.7679 163.861 85.1604 164.274 85.6573 164.287L104.251 164.761C104.748 164.773 105.161 164.381 105.174 163.884L105.357 156.686C105.37 156.189 104.978 155.776 104.481 155.764Z" fill="#0284C7"/>
<path opacity="0.5" d="M103.386 198.742L84.7918 198.268C84.2949 198.255 83.8818 198.648 83.8692 199.145L83.6857 206.342C83.673 206.839 84.0656 207.252 84.5625 207.265L103.156 207.739C103.653 207.752 104.066 207.359 104.079 206.862L104.263 199.664C104.275 199.168 103.883 198.755 103.386 198.742Z" fill="#0284C7"/>
<path opacity="0.5" d="M102.291 241.73L83.6969 241.256C83.2 241.244 82.7869 241.636 82.7742 242.133L82.5907 249.331C82.5781 249.828 82.9706 250.241 83.4675 250.253L102.061 250.727C102.558 250.74 102.971 250.347 102.984 249.85L103.168 242.653C103.18 242.156 102.788 241.743 102.291 241.73Z" fill="#0284C7"/>
<path opacity="0.5" d="M140.125 260.698L121.531 260.224C121.034 260.211 120.621 260.604 120.609 261.101L120.425 268.298C120.413 268.795 120.805 269.208 121.302 269.221L139.896 269.695C140.393 269.708 140.806 269.315 140.819 268.818L141.002 261.62C141.015 261.124 140.622 260.71 140.125 260.698Z" fill="#0284C7"/>
<path opacity="0.5" d="M203.604 262.315L185.01 261.841C184.513 261.828 184.1 262.221 184.087 262.718L183.904 269.915C183.891 270.412 184.283 270.825 184.78 270.838L203.374 271.312C203.871 271.324 204.284 270.932 204.297 270.435L204.48 263.237C204.493 262.74 204.1 262.327 203.604 262.315Z" fill="#0284C7"/>
<path d="M265.255 266.716L246.655 266.158C246.158 266.144 245.743 266.534 245.728 267.031L245.512 274.232C245.497 274.729 245.888 275.144 246.385 275.158L264.985 275.716C265.482 275.731 265.897 275.341 265.912 274.844L266.128 267.643C266.143 267.146 265.752 266.731 265.255 266.716Z" fill="#0284C7"/>
<path opacity="0.5" d="M329.072 265.511L310.478 265.037C309.981 265.024 309.568 265.417 309.555 265.913L309.372 273.111C309.359 273.608 309.751 274.021 310.248 274.034L328.842 274.508C329.339 274.52 329.752 274.128 329.765 273.631L329.948 266.433C329.961 265.936 329.569 265.523 329.072 265.511Z" fill="#0284C7"/>
<path opacity="0.5" d="M389.243 267.053L370.649 266.579C370.152 266.567 369.739 266.959 369.726 267.456L369.543 274.654C369.53 275.151 369.923 275.564 370.42 275.576L389.014 276.05C389.511 276.063 389.924 275.67 389.936 275.173L390.12 267.976C390.133 267.479 389.74 267.066 389.243 267.053Z" fill="#0284C7"/>
<path d="M445.648 268.48L427.054 268.006C426.558 267.993 426.144 268.386 426.132 268.883L425.948 276.08C425.936 276.577 426.328 276.99 426.825 277.003L445.419 277.477C445.916 277.49 446.329 277.097 446.342 276.6L446.525 269.402C446.538 268.906 446.145 268.493 445.648 268.48Z" fill="#0284C7"/>
<path d="M505.121 269.995L486.527 269.521C486.03 269.508 485.617 269.901 485.604 270.397L485.42 277.595C485.408 278.092 485.8 278.505 486.297 278.518L504.891 278.992C505.388 279.004 505.801 278.612 505.814 278.115L505.997 270.917C506.01 270.42 505.617 270.007 505.121 269.995Z" fill="#0284C7"/>
<path d="M569.042 275.838L551.422 275.31C550.655 275.286 550.014 275.89 549.991 276.658L549.804 282.878C549.781 283.645 550.385 284.286 551.152 284.31L568.772 284.838C569.54 284.861 570.181 284.257 570.204 283.49L570.391 277.27C570.414 276.502 569.81 275.861 569.042 275.838Z" fill="#0284C7"/>
</svg>
